<?xml version="1.0" standalone="no"?>
<!DOCTYPE svg PUBLIC "-//W3C//DTD SVG 20010904//EN"
 "http://www.w3.org/TR/2001/REC-SVG-20010904/DTD/svg10.dtd">
<svg version="1.0" xmlns="http://www.w3.org/2000/svg"
 width="614.000000pt" height="614.000000pt" viewBox="0 0 614.000000 614.000000"
 preserveAspectRatio="xMidYMid meet">
<metadata>
Created by potrace 1.15, written by Peter Selinger 2001-2017
</metadata>
<g transform="translate(0.000000,614.000000) scale(0.100000,-0.100000)"
fill="#000000" stroke="none">
<path d="M2830 5049 c-596 -56 -1142 -312 -1566 -734 -142 -141 -230 -247
-328 -395 -209 -314 -339 -647 -403 -1035 -25 -155 -26 -611 0 -770 20 -132
66 -320 103 -430 52 -156 204 -538 220 -556 9 -9 31 -25 49 -33 30 -14 248
-16 2165 -16 1946 0 2135 1 2166 16 19 9 43 28 53 43 20 27 150 357 208 526
43 126 88 307 110 450 26 159 25 614 0 770 -64 390 -192 719 -403 1035 -193
291 -475 564 -779 755 -112 71 -338 181 -470 230 -337 124 -762 179 -1125 144z
m445 -309 c862 -79 1604 -649 1910 -1467 90 -240 135 -498 135 -778 0 -316
-43 -533 -175 -883 l-82 -217 -1992 0 -1993 0 -19 50 c-153 397 -187 509 -220
730 -24 165 -26 441 -3 617 48 372 196 736 424 1043 472 634 1234 976 2015
905z"/>
<path d="M2820 4465 c-686 -83 -1288 -529 -1576 -1165 -110 -243 -162 -474
-171 -755 -8 -262 18 -453 93 -685 41 -127 61 -162 107 -183 32 -16 172 -17
1797 -17 1625 0 1765 1 1797 17 44 21 65 55 103 168 137 413 135 871 -6 1285
-303 891 -1201 1450 -2144 1335z m100 -445 l0 -141 39 -42 c39 -42 40 -42 111
-42 71 0 72 0 111 42 l39 42 0 141 0 140 29 0 c43 0 230 -37 309 -61 70 -22
282 -108 282 -115 0 -2 -38 -63 -84 -135 -47 -71 -88 -144 -91 -160 -21 -93
57 -189 152 -189 14 0 46 9 69 21 37 17 56 40 130 155 48 74 91 134 96 134 18
0 275 -266 323 -334 40 -56 46 -71 35 -78 -8 -5 -73 -44 -145 -86 -146 -87
-175 -118 -175 -189 0 -104 93 -179 190 -153 19 5 93 43 163 84 l128 75 14
-32 c43 -105 89 -291 110 -449 l6 -46 -150 -4 c-132 -3 -153 -5 -177 -24 -45
-33 -67 -70 -71 -121 -5 -59 18 -108 66 -140 31 -21 45 -23 177 -23 112 0 144
-3 144 -13 0 -26 -21 -133 -42 -219 l-22 -88 -531 0 -531 0 -18 57 c-20 63
-54 129 -96 183 l-28 35 230 330 c126 181 236 342 244 357 33 63 7 154 -56
196 -29 20 -45 23 -90 20 -30 -2 -67 -12 -81 -21 -15 -10 -136 -175 -270 -368
-210 -302 -246 -349 -264 -344 -11 4 -63 9 -115 12 -178 10 -314 -42 -441
-167 -78 -77 -141 -181 -155 -256 l-6 -34 -512 0 -512 0 -22 88 c-21 86 -42
193 -42 219 0 10 32 13 144 13 132 0 146 2 177 23 92 61 90 191 -5 261 -24 19
-45 21 -177 24 l-150 4 6 46 c21 158 67 344 110 449 l14 32 128 -75 c70 -41
144 -79 163 -84 97 -26 190 49 190 153 0 71 -29 102 -175 189 -72 42 -137 81
-145 86 -11 7 -5 22 35 78 49 69 305 334 323 334 5 0 49 -60 96 -134 74 -115
93 -138 130 -155 71 -35 138 -22 188 37 61 73 51 123 -57 291 -47 72 -85 133
-85 135 0 6 204 90 269 111 73 24 267 64 314 64 l37 1 0 -140z m245 -1925 c40
-19 125 -98 125 -116 0 -5 -103 -9 -240 -9 -132 0 -240 3 -240 6 0 30 93 109
155 132 44 17 153 9 200 -13z"/>
</g>
</svg>
