<?xml version="1.0" standalone="no"?>
<!DOCTYPE svg PUBLIC "-//W3C//DTD SVG 20010904//EN"
 "http://www.w3.org/TR/2001/REC-SVG-20010904/DTD/svg10.dtd">
<svg version="1.0" xmlns="http://www.w3.org/2000/svg"
 width="614.000000pt" height="614.000000pt" viewBox="0 0 614.000000 614.000000"
 preserveAspectRatio="xMidYMid meet">
<metadata>
Created by potrace 1.15, written by Peter Selinger 2001-2017
</metadata>
<g transform="translate(0.000000,614.000000) scale(0.100000,-0.100000)"
fill="#000000" stroke="none">
<path d="M2315 5611 c-135 -62 -185 -239 -103 -361 35 -51 89 -89 146 -102
l52 -13 0 -501 0 -501 -47 -18 c-27 -10 -95 -42 -153 -71 -498 -253 -857 -726
-976 -1289 -35 -165 -44 -465 -20 -635 111 -758 650 -1362 1386 -1554 180 -47
293 -59 519 -53 134 3 234 10 286 21 121 25 260 64 342 97 639 254 1079 810
1179 1489 24 169 15 470 -20 635 -118 562 -478 1036 -976 1289 -58 29 -126 61
-152 71 l-48 18 0 501 0 501 52 13 c184 43 248 275 115 412 -71 73 -30 70
-827 70 -672 0 -717 -2 -755 -19z m1440 -157 c26 -10 46 -59 36 -87 -23 -59 6
-57 -722 -57 -654 0 -667 0 -692 20 -14 11 -29 29 -32 40 -7 21 17 75 37 83
19 8 1353 8 1373 1z m-205 -854 c0 -448 2 -546 14 -568 11 -22 34 -35 103 -61
951 -356 1380 -1472 912 -2370 -264 -506 -746 -840 -1314 -911 -134 -17 -381
-8 -517 19 -802 160 -1378 860 -1378 1676 0 700 445 1339 1103 1586 110 41
117 52 117 179 l0 90 159 0 c208 0 241 12 241 90 0 78 -33 90 -241 90 l-159 0
0 75 0 75 95 0 c88 0 98 2 120 25 17 16 25 35 25 60 0 25 -8 44 -25 60 -22 23
-32 25 -120 25 l-95 0 0 75 0 75 159 0 c208 0 241 12 241 90 0 78 -33 90 -241
90 l-159 0 0 35 0 35 480 0 480 0 0 -540z"/>
<path d="M2198 3658 c-125 -83 -323 -281 -407 -408 -318 -478 -357 -1060 -105
-1565 228 -458 672 -773 1182 -840 656 -86 1294 252 1587 841 251 507 212
1086 -106 1564 -122 184 -443 470 -527 470 -15 0 -63 -12 -107 -26 -189 -60
-392 -88 -650 -87 -260 0 -496 34 -674 97 -71 26 -92 21 -193 -46z m257 -153
c382 -101 902 -97 1265 9 l85 25 51 -35 c269 -183 466 -468 548 -796 147 -581
-112 -1199 -634 -1510 -221 -132 -440 -192 -700 -192 -340 1 -636 111 -902
338 -323 276 -505 720 -469 1141 29 334 166 630 396 861 93 93 233 197 254
189 9 -4 57 -17 106 -30z"/>
<path d="M2973 3342 c-103 -37 -194 -134 -271 -291 l-47 -96 -80 18 c-110 24
-293 27 -366 4 -200 -61 -254 -249 -137 -481 36 -71 106 -173 161 -233 l39
-42 -63 -78 c-127 -158 -186 -277 -196 -393 -8 -93 9 -149 63 -209 64 -71 123
-93 259 -99 99 -4 254 13 307 33 11 4 21 -9 37 -47 62 -150 169 -280 267 -325
79 -36 169 -36 248 0 98 45 205 175 267 325 16 38 26 51 37 47 53 -20 208 -37
307 -33 136 6 195 28 259 99 54 60 71 116 63 209 -10 116 -69 235 -196 393
l-63 78 39 42 c55 60 125 162 161 233 117 232 63 420 -137 481 -73 23 -256 20
-366 -4 l-79 -18 -53 106 c-65 130 -147 225 -228 265 -73 35 -161 41 -232 16z
m143 -168 c19 -9 55 -39 79 -67 50 -54 123 -194 109 -207 -5 -4 -60 -29 -121
-55 l-113 -48 -112 48 c-62 26 -117 51 -122 55 -13 13 59 153 108 207 43 48
95 82 124 83 8 0 29 -7 48 -16z m-555 -374 l46 -11 -18 -82 c-10 -45 -22 -117
-28 -160 -8 -66 -13 -81 -36 -98 -14 -12 -49 -41 -77 -64 l-50 -44 -45 52
c-100 118 -166 243 -167 318 -1 54 20 84 68 99 39 12 245 5 307 -10z m1320 8
c55 -16 74 -41 74 -97 0 -74 -67 -199 -168 -318 l-45 -52 -50 44 c-28 23 -63
52 -77 64 -23 17 -28 32 -36 98 -6 43 -18 115 -28 160 l-18 82 56 11 c31 6 61
13 66 15 24 9 191 4 226 -7z m-724 -260 c48 -28 127 -78 174 -110 l87 -59 7
-79 c4 -43 4 -117 0 -163 l-7 -85 -122 -79 c-66 -44 -145 -93 -173 -109 l-53
-29 -52 29 c-29 16 -108 65 -175 109 l-121 79 -7 83 c-4 46 -4 119 0 163 l7
80 61 44 c49 34 274 175 284 177 1 1 42 -22 90 -51z m-682 -520 c56 -48 76
-70 80 -93 2 -16 13 -85 24 -153 12 -67 21 -126 21 -131 0 -16 -187 -44 -264
-39 -103 7 -156 43 -156 109 0 35 36 124 75 185 38 59 133 184 141 184 2 0 38
-28 79 -62z m1347 -32 c107 -142 153 -254 129 -314 -28 -66 -147 -88 -316 -57
l-97 17 5 32 c12 84 39 244 45 268 7 28 139 148 157 144 6 -1 40 -42 77 -90z
m-631 -410 c63 -27 116 -51 118 -53 7 -5 -41 -103 -81 -165 -118 -183 -245
-152 -367 89 -17 34 -31 66 -31 71 0 5 37 23 83 41 45 18 98 41 117 51 19 11
38 18 41 17 3 -1 57 -24 120 -51z"/>
</g>
</svg>
