<svg width="1000" height="1000" viewBox="0 0 680 680" xmlns="http://www.w3.org/2000/svg" role="img">
<title>NOMAD NMR Logo</title>
<desc>NOMAD logo with rainbow hue-wheel gradient, NMR triplet-of-triplets spectrum, and NOMAD lettering</desc>
<defs>
  <clipPath id="clip"><circle cx="340" cy="340" r="314"/></clipPath>
  <radialGradient id="white-glow" cx="50%" cy="50%" r="45%">
    <stop offset="0%" stop-color="#ffffff" stop-opacity="0.82"/>
    <stop offset="60%" stop-color="#ffffff" stop-opacity="0.25"/>
    <stop offset="100%" stop-color="#ffffff" stop-opacity="0"/>
  </radialGradient>
</defs>
<g clip-path="url(#clip)">
  <path d="M 340,340 L 340.000,26.000 A 314,314 0 0,1 342.740,26.012 Z" fill="#feff00"/><path d="M 340,340 L 342.740,26.012 A 314,314 0 0,1 345.480,26.048 Z" fill="#fcff00"/><path d="M 340,340 L 345.480,26.048 A 314,314 0 0,1 348.220,26.108 Z" fill="#faff00"/><path d="M 340,340 L 348.220,26.108 A 314,314 0 0,1 350.958,26.191 Z" fill="#f8ff00"/><path d="M 340,340 L 350.958,26.191 A 314,314 0 0,1 353.696,26.299 Z" fill="#f5ff00"/><path d="M 340,340 L 353.696,26.299 A 314,314 0 0,1 356.433,26.430 Z" fill="#f3ff00"/><path d="M 340,340 L 356.433,26.430 A 314,314 0 0,1 359.169,26.586 Z" fill="#f1ff00"/><path d="M 340,340 L 359.169,26.586 A 314,314 0 0,1 361.904,26.765 Z" fill="#efff00"/><path d="M 340,340 L 361.904,26.765 A 314,314 0 0,1 364.636,26.968 Z" fill="#edff00"/><path d="M 340,340 L 364.636,26.968 A 314,314 0 0,1 367.367,27.195 Z" fill="#ebff00"/><path d="M 340,340 L 367.367,27.195 A 314,314 0 0,1 370.096,27.446 Z" fill="#e9ff00"/><path d="M 340,340 L 370.096,27.446 A 314,314 0 0,1 372.822,27.720 Z" fill="#e7ff00"/><path d="M 340,340 L 372.822,27.720 A 314,314 0 0,1 375.546,28.018 Z" fill="#e4ff00"/><path d="M 340,340 L 375.546,28.018 A 314,314 0 0,1 378.267,28.341 Z" fill="#e2ff00"/><path d="M 340,340 L 378.267,28.341 A 314,314 0 0,1 380.985,28.686 Z" fill="#e0ff00"/><path d="M 340,340 L 380.985,28.686 A 314,314 0 0,1 383.700,29.056 Z" fill="#deff00"/><path d="M 340,340 L 383.700,29.056 A 314,314 0 0,1 386.412,29.449 Z" fill="#dcff00"/><path d="M 340,340 L 386.412,29.449 A 314,314 0 0,1 389.120,29.866 Z" fill="#daff00"/><path d="M 340,340 L 389.120,29.866 A 314,314 0 0,1 391.825,30.306 Z" fill="#d8ff00"/><path d="M 340,340 L 391.825,30.306 A 314,314 0 0,1 394.526,30.770 Z" fill="#d6ff00"/><path d="M 340,340 L 394.526,30.770 A 314,314 0 0,1 397.222,31.258 Z" fill="#d3ff00"/><path d="M 340,340 L 397.222,31.258 A 314,314 0 0,1 399.914,31.769 Z" fill="#d1ff00"/><path d="M 340,340 L 399.914,31.769 A 314,314 0 0,1 402.602,32.304 Z" fill="#cfff00"/><path d="M 340,340 L 402.602,32.304 A 314,314 0 0,1 405.284,32.862 Z" fill="#cdff00"/><path d="M 340,340 L 405.284,32.862 A 314,314 0 0,1 407.962,33.443 Z" fill="#cbff00"/><path d="M 340,340 L 407.962,33.443 A 314,314 0 0,1 410.635,34.048 Z" fill="#c9ff00"/><path d="M 340,340 L 410.635,34.048 A 314,314 0 0,1 413.302,34.676 Z" fill="#c7ff00"/><path d="M 340,340 L 413.302,34.676 A 314,314 0 0,1 415.963,35.327 Z" fill="#c5ff00"/><path d="M 340,340 L 415.963,35.327 A 314,314 0 0,1 418.619,36.002 Z" fill="#c2ff00"/><path d="M 340,340 L 418.619,36.002 A 314,314 0 0,1 421.269,36.699 Z" fill="#c0ff00"/><path d="M 340,340 L 421.269,36.699 A 314,314 0 0,1 423.913,37.420 Z" fill="#beff00"/><path d="M 340,340 L 423.913,37.420 A 314,314 0 0,1 426.550,38.164 Z" fill="#bcff00"/><path d="M 340,340 L 426.550,38.164 A 314,314 0 0,1 429.181,38.931 Z" fill="#baff00"/><path d="M 340,340 L 429.181,38.931 A 314,314 0 0,1 431.805,39.720 Z" fill="#b8ff00"/><path d="M 340,340 L 431.805,39.720 A 314,314 0 0,1 434.422,40.533 Z" fill="#b6ff00"/><path d="M 340,340 L 434.422,40.533 A 314,314 0 0,1 437.031,41.368 Z" fill="#b4ff00"/><path d="M 340,340 L 437.031,41.368 A 314,314 0 0,1 439.634,42.226 Z" fill="#b1ff00"/><path d="M 340,340 L 439.634,42.226 A 314,314 0 0,1 442.228,43.107 Z" fill="#afff00"/><path d="M 340,340 L 442.228,43.107 A 314,314 0 0,1 444.815,44.011 Z" fill="#adff00"/><path d="M 340,340 L 444.815,44.011 A 314,314 0 0,1 447.394,44.937 Z" fill="#abff00"/><path d="M 340,340 L 447.394,44.937 A 314,314 0 0,1 449.965,45.885 Z" fill="#a9ff00"/><path d="M 340,340 L 449.965,45.885 A 314,314 0 0,1 452.528,46.856 Z" fill="#a7ff00"/><path d="M 340,340 L 452.528,46.856 A 314,314 0 0,1 455.081,47.849 Z" fill="#a5ff00"/><path d="M 340,340 L 455.081,47.849 A 314,314 0 0,1 457.626,48.864 Z" fill="#a3ff00"/><path d="M 340,340 L 457.626,48.864 A 314,314 0 0,1 460.163,49.902 Z" fill="#a0ff00"/><path d="M 340,340 L 460.163,49.902 A 314,314 0 0,1 462.690,50.961 Z" fill="#9eff00"/><path d="M 340,340 L 462.690,50.961 A 314,314 0 0,1 465.207,52.043 Z" fill="#9cff00"/><path d="M 340,340 L 465.207,52.043 A 314,314 0 0,1 467.715,53.147 Z" fill="#9aff00"/><path d="M 340,340 L 467.715,53.147 A 314,314 0 0,1 470.214,54.272 Z" fill="#98ff00"/><path d="M 340,340 L 470.214,54.272 A 314,314 0 0,1 472.702,55.419 Z" fill="#96ff00"/><path d="M 340,340 L 472.702,55.419 A 314,314 0 0,1 475.180,56.588 Z" fill="#94ff00"/><path d="M 340,340 L 475.180,56.588 A 314,314 0 0,1 477.649,57.779 Z" fill="#92ff00"/><path d="M 340,340 L 477.649,57.779 A 314,314 0 0,1 480.106,58.991 Z" fill="#8fff00"/><path d="M 340,340 L 480.106,58.991 A 314,314 0 0,1 482.553,60.224 Z" fill="#8dff00"/><path d="M 340,340 L 482.553,60.224 A 314,314 0 0,1 484.989,61.479 Z" fill="#8bff00"/><path d="M 340,340 L 484.989,61.479 A 314,314 0 0,1 487.414,62.754 Z" fill="#89ff00"/><path d="M 340,340 L 487.414,62.754 A 314,314 0 0,1 489.828,64.051 Z" fill="#87ff00"/><path d="M 340,340 L 489.828,64.051 A 314,314 0 0,1 492.230,65.369 Z" fill="#85ff00"/><path d="M 340,340 L 492.230,65.369 A 314,314 0 0,1 494.621,66.708 Z" fill="#83ff00"/><path d="M 340,340 L 494.621,66.708 A 314,314 0 0,1 497.000,68.068 Z" fill="#81ff00"/><path d="M 340,340 L 497.000,68.068 A 314,314 0 0,1 499.367,69.448 Z" fill="#7eff00"/><path d="M 340,340 L 499.367,69.448 A 314,314 0 0,1 501.722,70.849 Z" fill="#7cff00"/><path d="M 340,340 L 501.722,70.849 A 314,314 0 0,1 504.065,72.271 Z" fill="#7aff00"/><path d="M 340,340 L 504.065,72.271 A 314,314 0 0,1 506.395,73.713 Z" fill="#78ff00"/><path d="M 340,340 L 506.395,73.713 A 314,314 0 0,1 508.712,75.175 Z" fill="#76ff00"/><path d="M 340,340 L 508.712,75.175 A 314,314 0 0,1 511.017,76.657 Z" fill="#74ff00"/><path d="M 340,340 L 511.017,76.657 A 314,314 0 0,1 513.308,78.160 Z" fill="#72ff00"/><path d="M 340,340 L 513.308,78.160 A 314,314 0 0,1 515.587,79.682 Z" fill="#70ff00"/><path d="M 340,340 L 515.587,79.682 A 314,314 0 0,1 517.852,81.224 Z" fill="#6dff00"/><path d="M 340,340 L 517.852,81.224 A 314,314 0 0,1 520.103,82.786 Z" fill="#6bff00"/><path d="M 340,340 L 520.103,82.786 A 314,314 0 0,1 522.341,84.368 Z" fill="#69ff00"/><path d="M 340,340 L 522.341,84.368 A 314,314 0 0,1 524.565,85.969 Z" fill="#67ff00"/><path d="M 340,340 L 524.565,85.969 A 314,314 0 0,1 526.774,87.589 Z" fill="#65ff00"/><path d="M 340,340 L 526.774,87.589 A 314,314 0 0,1 528.970,89.228 Z" fill="#63ff00"/><path d="M 340,340 L 528.970,89.228 A 314,314 0 0,1 531.151,90.887 Z" fill="#61ff00"/><path d="M 340,340 L 531.151,90.887 A 314,314 0 0,1 533.318,92.565 Z" fill="#5fff00"/><path d="M 340,340 L 533.318,92.565 A 314,314 0 0,1 535.470,94.261 Z" fill="#5cff00"/><path d="M 340,340 L 535.470,94.261 A 314,314 0 0,1 537.607,95.976 Z" fill="#5aff00"/><path d="M 340,340 L 537.607,95.976 A 314,314 0 0,1 539.729,97.710 Z" fill="#58ff00"/><path d="M 340,340 L 539.729,97.710 A 314,314 0 0,1 541.835,99.462 Z" fill="#56ff00"/><path d="M 340,340 L 541.835,99.462 A 314,314 0 0,1 543.927,101.233 Z" fill="#54ff00"/><path d="M 340,340 L 543.927,101.233 A 314,314 0 0,1 546.003,103.021 Z" fill="#52ff00"/><path d="M 340,340 L 546.003,103.021 A 314,314 0 0,1 548.063,104.828 Z" fill="#50ff00"/><path d="M 340,340 L 548.063,104.828 A 314,314 0 0,1 550.107,106.653 Z" fill="#4eff00"/><path d="M 340,340 L 550.107,106.653 A 314,314 0 0,1 552.135,108.495 Z" fill="#4bff00"/><path d="M 340,340 L 552.135,108.495 A 314,314 0 0,1 554.147,110.355 Z" fill="#49ff00"/><path d="M 340,340 L 554.147,110.355 A 314,314 0 0,1 556.143,112.232 Z" fill="#47ff00"/><path d="M 340,340 L 556.143,112.232 A 314,314 0 0,1 558.123,114.127 Z" fill="#45ff00"/><path d="M 340,340 L 558.123,114.127 A 314,314 0 0,1 560.086,116.039 Z" fill="#43ff00"/><path d="M 340,340 L 560.086,116.039 A 314,314 0 0,1 562.032,117.968 Z" fill="#41ff00"/><path d="M 340,340 L 562.032,117.968 A 314,314 0 0,1 563.961,119.914 Z" fill="#3fff00"/><path d="M 340,340 L 563.961,119.914 A 314,314 0 0,1 565.873,121.877 Z" fill="#3dff00"/><path d="M 340,340 L 565.873,121.877 A 314,314 0 0,1 567.768,123.857 Z" fill="#3aff00"/><path d="M 340,340 L 567.768,123.857 A 314,314 0 0,1 569.645,125.853 Z" fill="#38ff00"/><path d="M 340,340 L 569.645,125.853 A 314,314 0 0,1 571.505,127.865 Z" fill="#36ff00"/><path d="M 340,340 L 571.505,127.865 A 314,314 0 0,1 573.347,129.893 Z" fill="#34ff00"/><path d="M 340,340 L 573.347,129.893 A 314,314 0 0,1 575.172,131.937 Z" fill="#32ff00"/><path d="M 340,340 L 575.172,131.937 A 314,314 0 0,1 576.979,133.997 Z" fill="#30ff00"/><path d="M 340,340 L 576.979,133.997 A 314,314 0 0,1 578.767,136.073 Z" fill="#2eff00"/><path d="M 340,340 L 578.767,136.073 A 314,314 0 0,1 580.538,138.165 Z" fill="#2cff00"/><path d="M 340,340 L 580.538,138.165 A 314,314 0 0,1 582.290,140.271 Z" fill="#29ff00"/><path d="M 340,340 L 582.290,140.271 A 314,314 0 0,1 584.024,142.393 Z" fill="#27ff00"/><path d="M 340,340 L 584.024,142.393 A 314,314 0 0,1 585.739,144.530 Z" fill="#25ff00"/><path d="M 340,340 L 585.739,144.530 A 314,314 0 0,1 587.435,146.682 Z" fill="#23ff00"/><path d="M 340,340 L 587.435,146.682 A 314,314 0 0,1 589.113,148.849 Z" fill="#21ff00"/><path d="M 340,340 L 589.113,148.849 A 314,314 0 0,1 590.772,151.030 Z" fill="#1fff00"/><path d="M 340,340 L 590.772,151.030 A 314,314 0 0,1 592.411,153.226 Z" fill="#1dff00"/><path d="M 340,340 L 592.411,153.226 A 314,314 0 0,1 594.031,155.435 Z" fill="#1bff00"/><path d="M 340,340 L 594.031,155.435 A 314,314 0 0,1 595.632,157.659 Z" fill="#18ff00"/><path d="M 340,340 L 595.632,157.659 A 314,314 0 0,1 597.214,159.897 Z" fill="#16ff00"/><path d="M 340,340 L 597.214,159.897 A 314,314 0 0,1 598.776,162.148 Z" fill="#14ff00"/><path d="M 340,340 L 598.776,162.148 A 314,314 0 0,1 600.318,164.413 Z" fill="#12ff00"/><path d="M 340,340 L 600.318,164.413 A 314,314 0 0,1 601.840,166.692 Z" fill="#10ff00"/><path d="M 340,340 L 601.840,166.692 A 314,314 0 0,1 603.343,168.983 Z" fill="#0eff00"/><path d="M 340,340 L 603.343,168.983 A 314,314 0 0,1 604.825,171.288 Z" fill="#0cff00"/><path d="M 340,340 L 604.825,171.288 A 314,314 0 0,1 606.287,173.605 Z" fill="#0aff00"/><path d="M 340,340 L 606.287,173.605 A 314,314 0 0,1 607.729,175.935 Z" fill="#07ff00"/><path d="M 340,340 L 607.729,175.935 A 314,314 0 0,1 609.151,178.278 Z" fill="#05ff00"/><path d="M 340,340 L 609.151,178.278 A 314,314 0 0,1 610.552,180.633 Z" fill="#03ff00"/><path d="M 340,340 L 610.552,180.633 A 314,314 0 0,1 611.932,183.000 Z" fill="#01ff00"/><path d="M 340,340 L 611.932,183.000 A 314,314 0 0,1 613.292,185.379 Z" fill="#00ff01"/><path d="M 340,340 L 613.292,185.379 A 314,314 0 0,1 614.631,187.770 Z" fill="#00ff03"/><path d="M 340,340 L 614.631,187.770 A 314,314 0 0,1 615.949,190.172 Z" fill="#00ff05"/><path d="M 340,340 L 615.949,190.172 A 314,314 0 0,1 617.246,192.586 Z" fill="#00ff07"/><path d="M 340,340 L 617.246,192.586 A 314,314 0 0,1 618.521,195.011 Z" fill="#00ff0a"/><path d="M 340,340 L 618.521,195.011 A 314,314 0 0,1 619.776,197.447 Z" fill="#00ff0c"/><path d="M 340,340 L 619.776,197.447 A 314,314 0 0,1 621.009,199.894 Z" fill="#00ff0e"/><path d="M 340,340 L 621.009,199.894 A 314,314 0 0,1 622.221,202.351 Z" fill="#00ff10"/><path d="M 340,340 L 622.221,202.351 A 314,314 0 0,1 623.412,204.820 Z" fill="#00ff12"/><path d="M 340,340 L 623.412,204.820 A 314,314 0 0,1 624.581,207.298 Z" fill="#00ff14"/><path d="M 340,340 L 624.581,207.298 A 314,314 0 0,1 625.728,209.786 Z" fill="#00ff16"/><path d="M 340,340 L 625.728,209.786 A 314,314 0 0,1 626.853,212.285 Z" fill="#00ff18"/><path d="M 340,340 L 626.853,212.285 A 314,314 0 0,1 627.957,214.793 Z" fill="#00ff1b"/><path d="M 340,340 L 627.957,214.793 A 314,314 0 0,1 629.039,217.310 Z" fill="#00ff1d"/><path d="M 340,340 L 629.039,217.310 A 314,314 0 0,1 630.098,219.837 Z" fill="#00ff1f"/><path d="M 340,340 L 630.098,219.837 A 314,314 0 0,1 631.136,222.374 Z" fill="#00ff21"/><path d="M 340,340 L 631.136,222.374 A 314,314 0 0,1 632.151,224.919 Z" fill="#00ff23"/><path d="M 340,340 L 632.151,224.919 A 314,314 0 0,1 633.144,227.472 Z" fill="#00ff25"/><path d="M 340,340 L 633.144,227.472 A 314,314 0 0,1 634.115,230.035 Z" fill="#00ff27"/><path d="M 340,340 L 634.115,230.035 A 314,314 0 0,1 635.063,232.606 Z" fill="#00ff29"/><path d="M 340,340 L 635.063,232.606 A 314,314 0 0,1 635.989,235.185 Z" fill="#00ff2c"/><path d="M 340,340 L 635.989,235.185 A 314,314 0 0,1 636.893,237.772 Z" fill="#00ff2e"/><path d="M 340,340 L 636.893,237.772 A 314,314 0 0,1 637.774,240.366 Z" fill="#00ff30"/><path d="M 340,340 L 637.774,240.366 A 314,314 0 0,1 638.632,242.969 Z" fill="#00ff32"/><path d="M 340,340 L 638.632,242.969 A 314,314 0 0,1 639.467,245.578 Z" fill="#00ff34"/><path d="M 340,340 L 639.467,245.578 A 314,314 0 0,1 640.280,248.195 Z" fill="#00ff36"/><path d="M 340,340 L 640.280,248.195 A 314,314 0 0,1 641.069,250.819 Z" fill="#00ff38"/><path d="M 340,340 L 641.069,250.819 A 314,314 0 0,1 641.836,253.450 Z" fill="#00ff3a"/><path d="M 340,340 L 641.836,253.450 A 314,314 0 0,1 642.580,256.087 Z" fill="#00ff3d"/><path d="M 340,340 L 642.580,256.087 A 314,314 0 0,1 643.301,258.731 Z" fill="#00ff3f"/><path d="M 340,340 L 643.301,258.731 A 314,314 0 0,1 643.998,261.381 Z" fill="#00ff41"/><path d="M 340,340 L 643.998,261.381 A 314,314 0 0,1 644.673,264.037 Z" fill="#00ff43"/><path d="M 340,340 L 644.673,264.037 A 314,314 0 0,1 645.324,266.698 Z" fill="#00ff45"/><path d="M 340,340 L 645.324,266.698 A 314,314 0 0,1 645.952,269.365 Z" fill="#00ff47"/><path d="M 340,340 L 645.952,269.365 A 314,314 0 0,1 646.557,272.038 Z" fill="#00ff49"/><path d="M 340,340 L 646.557,272.038 A 314,314 0 0,1 647.138,274.716 Z" fill="#00ff4b"/><path d="M 340,340 L 647.138,274.716 A 314,314 0 0,1 647.696,277.398 Z" fill="#00ff4e"/><path d="M 340,340 L 647.696,277.398 A 314,314 0 0,1 648.231,280.086 Z" fill="#00ff50"/><path d="M 340,340 L 648.231,280.086 A 314,314 0 0,1 648.742,282.778 Z" fill="#00ff52"/><path d="M 340,340 L 648.742,282.778 A 314,314 0 0,1 649.230,285.474 Z" fill="#00ff54"/><path d="M 340,340 L 649.230,285.474 A 314,314 0 0,1 649.694,288.175 Z" fill="#00ff56"/><path d="M 340,340 L 649.694,288.175 A 314,314 0 0,1 650.134,290.880 Z" fill="#00ff58"/><path d="M 340,340 L 650.134,290.880 A 314,314 0 0,1 650.551,293.588 Z" fill="#00ff5a"/><path d="M 340,340 L 650.551,293.588 A 314,314 0 0,1 650.944,296.300 Z" fill="#00ff5c"/><path d="M 340,340 L 650.944,296.300 A 314,314 0 0,1 651.314,299.015 Z" fill="#00ff5f"/><path d="M 340,340 L 651.314,299.015 A 314,314 0 0,1 651.659,301.733 Z" fill="#00ff61"/><path d="M 340,340 L 651.659,301.733 A 314,314 0 0,1 651.982,304.454 Z" fill="#00ff63"/><path d="M 340,340 L 651.982,304.454 A 314,314 0 0,1 652.280,307.178 Z" fill="#00ff65"/><path d="M 340,340 L 652.280,307.178 A 314,314 0 0,1 652.554,309.904 Z" fill="#00ff67"/><path d="M 340,340 L 652.554,309.904 A 314,314 0 0,1 652.805,312.633 Z" fill="#00ff69"/><path d="M 340,340 L 652.805,312.633 A 314,314 0 0,1 653.032,315.364 Z" fill="#00ff6b"/><path d="M 340,340 L 653.032,315.364 A 314,314 0 0,1 653.235,318.096 Z" fill="#00ff6d"/><path d="M 340,340 L 653.235,318.096 A 314,314 0 0,1 653.414,320.831 Z" fill="#00ff70"/><path d="M 340,340 L 653.414,320.831 A 314,314 0 0,1 653.570,323.567 Z" fill="#00ff72"/><path d="M 340,340 L 653.570,323.567 A 314,314 0 0,1 653.701,326.304 Z" fill="#00ff74"/><path d="M 340,340 L 653.701,326.304 A 314,314 0 0,1 653.809,329.042 Z" fill="#00ff76"/><path d="M 340,340 L 653.809,329.042 A 314,314 0 0,1 653.892,331.780 Z" fill="#00ff78"/><path d="M 340,340 L 653.892,331.780 A 314,314 0 0,1 653.952,334.520 Z" fill="#00ff7a"/><path d="M 340,340 L 653.952,334.520 A 314,314 0 0,1 653.988,337.260 Z" fill="#00ff7c"/><path d="M 340,340 L 653.988,337.260 A 314,314 0 0,1 654.000,340.000 Z" fill="#00ff7e"/><path d="M 340,340 L 654.000,340.000 A 314,314 0 0,1 653.988,342.740 Z" fill="#00ff81"/><path d="M 340,340 L 653.988,342.740 A 314,314 0 0,1 653.952,345.480 Z" fill="#00ff83"/><path d="M 340,340 L 653.952,345.480 A 314,314 0 0,1 653.892,348.220 Z" fill="#00ff85"/><path d="M 340,340 L 653.892,348.220 A 314,314 0 0,1 653.809,350.958 Z" fill="#00ff87"/><path d="M 340,340 L 653.809,350.958 A 314,314 0 0,1 653.701,353.696 Z" fill="#00ff89"/><path d="M 340,340 L 653.701,353.696 A 314,314 0 0,1 653.570,356.433 Z" fill="#00ff8b"/><path d="M 340,340 L 653.570,356.433 A 314,314 0 0,1 653.414,359.169 Z" fill="#00ff8d"/><path d="M 340,340 L 653.414,359.169 A 314,314 0 0,1 653.235,361.904 Z" fill="#00ff8f"/><path d="M 340,340 L 653.235,361.904 A 314,314 0 0,1 653.032,364.636 Z" fill="#00ff92"/><path d="M 340,340 L 653.032,364.636 A 314,314 0 0,1 652.805,367.367 Z" fill="#00ff94"/><path d="M 340,340 L 652.805,367.367 A 314,314 0 0,1 652.554,370.096 Z" fill="#00ff96"/><path d="M 340,340 L 652.554,370.096 A 314,314 0 0,1 652.280,372.822 Z" fill="#00ff98"/><path d="M 340,340 L 652.280,372.822 A 314,314 0 0,1 651.982,375.546 Z" fill="#00ff9a"/><path d="M 340,340 L 651.982,375.546 A 314,314 0 0,1 651.659,378.267 Z" fill="#00ff9c"/><path d="M 340,340 L 651.659,378.267 A 314,314 0 0,1 651.314,380.985 Z" fill="#00ff9e"/><path d="M 340,340 L 651.314,380.985 A 314,314 0 0,1 650.944,383.700 Z" fill="#00ffa0"/><path d="M 340,340 L 650.944,383.700 A 314,314 0 0,1 650.551,386.412 Z" fill="#00ffa3"/><path d="M 340,340 L 650.551,386.412 A 314,314 0 0,1 650.134,389.120 Z" fill="#00ffa5"/><path d="M 340,340 L 650.134,389.120 A 314,314 0 0,1 649.694,391.825 Z" fill="#00ffa7"/><path d="M 340,340 L 649.694,391.825 A 314,314 0 0,1 649.230,394.526 Z" fill="#00ffa9"/><path d="M 340,340 L 649.230,394.526 A 314,314 0 0,1 648.742,397.222 Z" fill="#00ffab"/><path d="M 340,340 L 648.742,397.222 A 314,314 0 0,1 648.231,399.914 Z" fill="#00ffad"/><path d="M 340,340 L 648.231,399.914 A 314,314 0 0,1 647.696,402.602 Z" fill="#00ffaf"/><path d="M 340,340 L 647.696,402.602 A 314,314 0 0,1 647.138,405.284 Z" fill="#00ffb1"/><path d="M 340,340 L 647.138,405.284 A 314,314 0 0,1 646.557,407.962 Z" fill="#00ffb4"/><path d="M 340,340 L 646.557,407.962 A 314,314 0 0,1 645.952,410.635 Z" fill="#00ffb6"/><path d="M 340,340 L 645.952,410.635 A 314,314 0 0,1 645.324,413.302 Z" fill="#00ffb8"/><path d="M 340,340 L 645.324,413.302 A 314,314 0 0,1 644.673,415.963 Z" fill="#00ffba"/><path d="M 340,340 L 644.673,415.963 A 314,314 0 0,1 643.998,418.619 Z" fill="#00ffbc"/><path d="M 340,340 L 643.998,418.619 A 314,314 0 0,1 643.301,421.269 Z" fill="#00ffbe"/><path d="M 340,340 L 643.301,421.269 A 314,314 0 0,1 642.580,423.913 Z" fill="#00ffc0"/><path d="M 340,340 L 642.580,423.913 A 314,314 0 0,1 641.836,426.550 Z" fill="#00ffc2"/><path d="M 340,340 L 641.836,426.550 A 314,314 0 0,1 641.069,429.181 Z" fill="#00ffc5"/><path d="M 340,340 L 641.069,429.181 A 314,314 0 0,1 640.280,431.805 Z" fill="#00ffc7"/><path d="M 340,340 L 640.280,431.805 A 314,314 0 0,1 639.467,434.422 Z" fill="#00ffc9"/><path d="M 340,340 L 639.467,434.422 A 314,314 0 0,1 638.632,437.031 Z" fill="#00ffcb"/><path d="M 340,340 L 638.632,437.031 A 314,314 0 0,1 637.774,439.634 Z" fill="#00ffcd"/><path d="M 340,340 L 637.774,439.634 A 314,314 0 0,1 636.893,442.228 Z" fill="#00ffcf"/><path d="M 340,340 L 636.893,442.228 A 314,314 0 0,1 635.989,444.815 Z" fill="#00ffd1"/><path d="M 340,340 L 635.989,444.815 A 314,314 0 0,1 635.063,447.394 Z" fill="#00ffd3"/><path d="M 340,340 L 635.063,447.394 A 314,314 0 0,1 634.115,449.965 Z" fill="#00ffd6"/><path d="M 340,340 L 634.115,449.965 A 314,314 0 0,1 633.144,452.528 Z" fill="#00ffd8"/><path d="M 340,340 L 633.144,452.528 A 314,314 0 0,1 632.151,455.081 Z" fill="#00ffda"/><path d="M 340,340 L 632.151,455.081 A 314,314 0 0,1 631.136,457.626 Z" fill="#00ffdc"/><path d="M 340,340 L 631.136,457.626 A 314,314 0 0,1 630.098,460.163 Z" fill="#00ffde"/><path d="M 340,340 L 630.098,460.163 A 314,314 0 0,1 629.039,462.690 Z" fill="#00ffe0"/><path d="M 340,340 L 629.039,462.690 A 314,314 0 0,1 627.957,465.207 Z" fill="#00ffe2"/><path d="M 340,340 L 627.957,465.207 A 314,314 0 0,1 626.853,467.715 Z" fill="#00ffe4"/><path d="M 340,340 L 626.853,467.715 A 314,314 0 0,1 625.728,470.214 Z" fill="#00ffe7"/><path d="M 340,340 L 625.728,470.214 A 314,314 0 0,1 624.581,472.702 Z" fill="#00ffe9"/><path d="M 340,340 L 624.581,472.702 A 314,314 0 0,1 623.412,475.180 Z" fill="#00ffeb"/><path d="M 340,340 L 623.412,475.180 A 314,314 0 0,1 622.221,477.649 Z" fill="#00ffed"/><path d="M 340,340 L 622.221,477.649 A 314,314 0 0,1 621.009,480.106 Z" fill="#00ffef"/><path d="M 340,340 L 621.009,480.106 A 314,314 0 0,1 619.776,482.553 Z" fill="#00fff1"/><path d="M 340,340 L 619.776,482.553 A 314,314 0 0,1 618.521,484.989 Z" fill="#00fff3"/><path d="M 340,340 L 618.521,484.989 A 314,314 0 0,1 617.246,487.414 Z" fill="#00fff5"/><path d="M 340,340 L 617.246,487.414 A 314,314 0 0,1 615.949,489.828 Z" fill="#00fff8"/><path d="M 340,340 L 615.949,489.828 A 314,314 0 0,1 614.631,492.230 Z" fill="#00fffa"/><path d="M 340,340 L 614.631,492.230 A 314,314 0 0,1 613.292,494.621 Z" fill="#00fffc"/><path d="M 340,340 L 613.292,494.621 A 314,314 0 0,1 611.932,497.000 Z" fill="#00fffe"/><path d="M 340,340 L 611.932,497.000 A 314,314 0 0,1 610.552,499.367 Z" fill="#00feff"/><path d="M 340,340 L 610.552,499.367 A 314,314 0 0,1 609.151,501.722 Z" fill="#00fcff"/><path d="M 340,340 L 609.151,501.722 A 314,314 0 0,1 607.729,504.065 Z" fill="#00faff"/><path d="M 340,340 L 607.729,504.065 A 314,314 0 0,1 606.287,506.395 Z" fill="#00f8ff"/><path d="M 340,340 L 606.287,506.395 A 314,314 0 0,1 604.825,508.712 Z" fill="#00f5ff"/><path d="M 340,340 L 604.825,508.712 A 314,314 0 0,1 603.343,511.017 Z" fill="#00f3ff"/><path d="M 340,340 L 603.343,511.017 A 314,314 0 0,1 601.840,513.308 Z" fill="#00f1ff"/><path d="M 340,340 L 601.840,513.308 A 314,314 0 0,1 600.318,515.587 Z" fill="#00efff"/><path d="M 340,340 L 600.318,515.587 A 314,314 0 0,1 598.776,517.852 Z" fill="#00edff"/><path d="M 340,340 L 598.776,517.852 A 314,314 0 0,1 597.214,520.103 Z" fill="#00ebff"/><path d="M 340,340 L 597.214,520.103 A 314,314 0 0,1 595.632,522.341 Z" fill="#00e9ff"/><path d="M 340,340 L 595.632,522.341 A 314,314 0 0,1 594.031,524.565 Z" fill="#00e7ff"/><path d="M 340,340 L 594.031,524.565 A 314,314 0 0,1 592.411,526.774 Z" fill="#00e4ff"/><path d="M 340,340 L 592.411,526.774 A 314,314 0 0,1 590.772,528.970 Z" fill="#00e2ff"/><path d="M 340,340 L 590.772,528.970 A 314,314 0 0,1 589.113,531.151 Z" fill="#00e0ff"/><path d="M 340,340 L 589.113,531.151 A 314,314 0 0,1 587.435,533.318 Z" fill="#00deff"/><path d="M 340,340 L 587.435,533.318 A 314,314 0 0,1 585.739,535.470 Z" fill="#00dcff"/><path d="M 340,340 L 585.739,535.470 A 314,314 0 0,1 584.024,537.607 Z" fill="#00daff"/><path d="M 340,340 L 584.024,537.607 A 314,314 0 0,1 582.290,539.729 Z" fill="#00d8ff"/><path d="M 340,340 L 582.290,539.729 A 314,314 0 0,1 580.538,541.835 Z" fill="#00d6ff"/><path d="M 340,340 L 580.538,541.835 A 314,314 0 0,1 578.767,543.927 Z" fill="#00d3ff"/><path d="M 340,340 L 578.767,543.927 A 314,314 0 0,1 576.979,546.003 Z" fill="#00d1ff"/><path d="M 340,340 L 576.979,546.003 A 314,314 0 0,1 575.172,548.063 Z" fill="#00cfff"/><path d="M 340,340 L 575.172,548.063 A 314,314 0 0,1 573.347,550.107 Z" fill="#00cdff"/><path d="M 340,340 L 573.347,550.107 A 314,314 0 0,1 571.505,552.135 Z" fill="#00cbff"/><path d="M 340,340 L 571.505,552.135 A 314,314 0 0,1 569.645,554.147 Z" fill="#00c9ff"/><path d="M 340,340 L 569.645,554.147 A 314,314 0 0,1 567.768,556.143 Z" fill="#00c7ff"/><path d="M 340,340 L 567.768,556.143 A 314,314 0 0,1 565.873,558.123 Z" fill="#00c5ff"/><path d="M 340,340 L 565.873,558.123 A 314,314 0 0,1 563.961,560.086 Z" fill="#00c2ff"/><path d="M 340,340 L 563.961,560.086 A 314,314 0 0,1 562.032,562.032 Z" fill="#00c0ff"/><path d="M 340,340 L 562.032,562.032 A 314,314 0 0,1 560.086,563.961 Z" fill="#00beff"/><path d="M 340,340 L 560.086,563.961 A 314,314 0 0,1 558.123,565.873 Z" fill="#00bcff"/><path d="M 340,340 L 558.123,565.873 A 314,314 0 0,1 556.143,567.768 Z" fill="#00baff"/><path d="M 340,340 L 556.143,567.768 A 314,314 0 0,1 554.147,569.645 Z" fill="#00b8ff"/><path d="M 340,340 L 554.147,569.645 A 314,314 0 0,1 552.135,571.505 Z" fill="#00b6ff"/><path d="M 340,340 L 552.135,571.505 A 314,314 0 0,1 550.107,573.347 Z" fill="#00b4ff"/><path d="M 340,340 L 550.107,573.347 A 314,314 0 0,1 548.063,575.172 Z" fill="#00b1ff"/><path d="M 340,340 L 548.063,575.172 A 314,314 0 0,1 546.003,576.979 Z" fill="#00afff"/><path d="M 340,340 L 546.003,576.979 A 314,314 0 0,1 543.927,578.767 Z" fill="#00adff"/><path d="M 340,340 L 543.927,578.767 A 314,314 0 0,1 541.835,580.538 Z" fill="#00abff"/><path d="M 340,340 L 541.835,580.538 A 314,314 0 0,1 539.729,582.290 Z" fill="#00a9ff"/><path d="M 340,340 L 539.729,582.290 A 314,314 0 0,1 537.607,584.024 Z" fill="#00a7ff"/><path d="M 340,340 L 537.607,584.024 A 314,314 0 0,1 535.470,585.739 Z" fill="#00a5ff"/><path d="M 340,340 L 535.470,585.739 A 314,314 0 0,1 533.318,587.435 Z" fill="#00a3ff"/><path d="M 340,340 L 533.318,587.435 A 314,314 0 0,1 531.151,589.113 Z" fill="#00a0ff"/><path d="M 340,340 L 531.151,589.113 A 314,314 0 0,1 528.970,590.772 Z" fill="#009eff"/><path d="M 340,340 L 528.970,590.772 A 314,314 0 0,1 526.774,592.411 Z" fill="#009cff"/><path d="M 340,340 L 526.774,592.411 A 314,314 0 0,1 524.565,594.031 Z" fill="#009aff"/><path d="M 340,340 L 524.565,594.031 A 314,314 0 0,1 522.341,595.632 Z" fill="#0098ff"/><path d="M 340,340 L 522.341,595.632 A 314,314 0 0,1 520.103,597.214 Z" fill="#0096ff"/><path d="M 340,340 L 520.103,597.214 A 314,314 0 0,1 517.852,598.776 Z" fill="#0094ff"/><path d="M 340,340 L 517.852,598.776 A 314,314 0 0,1 515.587,600.318 Z" fill="#0092ff"/><path d="M 340,340 L 515.587,600.318 A 314,314 0 0,1 513.308,601.840 Z" fill="#008fff"/><path d="M 340,340 L 513.308,601.840 A 314,314 0 0,1 511.017,603.343 Z" fill="#008dff"/><path d="M 340,340 L 511.017,603.343 A 314,314 0 0,1 508.712,604.825 Z" fill="#008bff"/><path d="M 340,340 L 508.712,604.825 A 314,314 0 0,1 506.395,606.287 Z" fill="#0089ff"/><path d="M 340,340 L 506.395,606.287 A 314,314 0 0,1 504.065,607.729 Z" fill="#0087ff"/><path d="M 340,340 L 504.065,607.729 A 314,314 0 0,1 501.722,609.151 Z" fill="#0085ff"/><path d="M 340,340 L 501.722,609.151 A 314,314 0 0,1 499.367,610.552 Z" fill="#0083ff"/><path d="M 340,340 L 499.367,610.552 A 314,314 0 0,1 497.000,611.932 Z" fill="#0081ff"/><path d="M 340,340 L 497.000,611.932 A 314,314 0 0,1 494.621,613.292 Z" fill="#007eff"/><path d="M 340,340 L 494.621,613.292 A 314,314 0 0,1 492.230,614.631 Z" fill="#007cff"/><path d="M 340,340 L 492.230,614.631 A 314,314 0 0,1 489.828,615.949 Z" fill="#007aff"/><path d="M 340,340 L 489.828,615.949 A 314,314 0 0,1 487.414,617.246 Z" fill="#0078ff"/><path d="M 340,340 L 487.414,617.246 A 314,314 0 0,1 484.989,618.521 Z" fill="#0076ff"/><path d="M 340,340 L 484.989,618.521 A 314,314 0 0,1 482.553,619.776 Z" fill="#0074ff"/><path d="M 340,340 L 482.553,619.776 A 314,314 0 0,1 480.106,621.009 Z" fill="#0072ff"/><path d="M 340,340 L 480.106,621.009 A 314,314 0 0,1 477.649,622.221 Z" fill="#0070ff"/><path d="M 340,340 L 477.649,622.221 A 314,314 0 0,1 475.180,623.412 Z" fill="#006dff"/><path d="M 340,340 L 475.180,623.412 A 314,314 0 0,1 472.702,624.581 Z" fill="#006bff"/><path d="M 340,340 L 472.702,624.581 A 314,314 0 0,1 470.214,625.728 Z" fill="#0069ff"/><path d="M 340,340 L 470.214,625.728 A 314,314 0 0,1 467.715,626.853 Z" fill="#0067ff"/><path d="M 340,340 L 467.715,626.853 A 314,314 0 0,1 465.207,627.957 Z" fill="#0065ff"/><path d="M 340,340 L 465.207,627.957 A 314,314 0 0,1 462.690,629.039 Z" fill="#0063ff"/><path d="M 340,340 L 462.690,629.039 A 314,314 0 0,1 460.163,630.098 Z" fill="#0061ff"/><path d="M 340,340 L 460.163,630.098 A 314,314 0 0,1 457.626,631.136 Z" fill="#005fff"/><path d="M 340,340 L 457.626,631.136 A 314,314 0 0,1 455.081,632.151 Z" fill="#005cff"/><path d="M 340,340 L 455.081,632.151 A 314,314 0 0,1 452.528,633.144 Z" fill="#005aff"/><path d="M 340,340 L 452.528,633.144 A 314,314 0 0,1 449.965,634.115 Z" fill="#0058ff"/><path d="M 340,340 L 449.965,634.115 A 314,314 0 0,1 447.394,635.063 Z" fill="#0056ff"/><path d="M 340,340 L 447.394,635.063 A 314,314 0 0,1 444.815,635.989 Z" fill="#0054ff"/><path d="M 340,340 L 444.815,635.989 A 314,314 0 0,1 442.228,636.893 Z" fill="#0052ff"/><path d="M 340,340 L 442.228,636.893 A 314,314 0 0,1 439.634,637.774 Z" fill="#0050ff"/><path d="M 340,340 L 439.634,637.774 A 314,314 0 0,1 437.031,638.632 Z" fill="#004eff"/><path d="M 340,340 L 437.031,638.632 A 314,314 0 0,1 434.422,639.467 Z" fill="#004bff"/><path d="M 340,340 L 434.422,639.467 A 314,314 0 0,1 431.805,640.280 Z" fill="#0049ff"/><path d="M 340,340 L 431.805,640.280 A 314,314 0 0,1 429.181,641.069 Z" fill="#0047ff"/><path d="M 340,340 L 429.181,641.069 A 314,314 0 0,1 426.550,641.836 Z" fill="#0045ff"/><path d="M 340,340 L 426.550,641.836 A 314,314 0 0,1 423.913,642.580 Z" fill="#0043ff"/><path d="M 340,340 L 423.913,642.580 A 314,314 0 0,1 421.269,643.301 Z" fill="#0041ff"/><path d="M 340,340 L 421.269,643.301 A 314,314 0 0,1 418.619,643.998 Z" fill="#003fff"/><path d="M 340,340 L 418.619,643.998 A 314,314 0 0,1 415.963,644.673 Z" fill="#003dff"/><path d="M 340,340 L 415.963,644.673 A 314,314 0 0,1 413.302,645.324 Z" fill="#003aff"/><path d="M 340,340 L 413.302,645.324 A 314,314 0 0,1 410.635,645.952 Z" fill="#0038ff"/><path d="M 340,340 L 410.635,645.952 A 314,314 0 0,1 407.962,646.557 Z" fill="#0036ff"/><path d="M 340,340 L 407.962,646.557 A 314,314 0 0,1 405.284,647.138 Z" fill="#0034ff"/><path d="M 340,340 L 405.284,647.138 A 314,314 0 0,1 402.602,647.696 Z" fill="#0032ff"/><path d="M 340,340 L 402.602,647.696 A 314,314 0 0,1 399.914,648.231 Z" fill="#0030ff"/><path d="M 340,340 L 399.914,648.231 A 314,314 0 0,1 397.222,648.742 Z" fill="#002eff"/><path d="M 340,340 L 397.222,648.742 A 314,314 0 0,1 394.526,649.230 Z" fill="#002cff"/><path d="M 340,340 L 394.526,649.230 A 314,314 0 0,1 391.825,649.694 Z" fill="#0029ff"/><path d="M 340,340 L 391.825,649.694 A 314,314 0 0,1 389.120,650.134 Z" fill="#0027ff"/><path d="M 340,340 L 389.120,650.134 A 314,314 0 0,1 386.412,650.551 Z" fill="#0025ff"/><path d="M 340,340 L 386.412,650.551 A 314,314 0 0,1 383.700,650.944 Z" fill="#0023ff"/><path d="M 340,340 L 383.700,650.944 A 314,314 0 0,1 380.985,651.314 Z" fill="#0021ff"/><path d="M 340,340 L 380.985,651.314 A 314,314 0 0,1 378.267,651.659 Z" fill="#001fff"/><path d="M 340,340 L 378.267,651.659 A 314,314 0 0,1 375.546,651.982 Z" fill="#001dff"/><path d="M 340,340 L 375.546,651.982 A 314,314 0 0,1 372.822,652.280 Z" fill="#001bff"/><path d="M 340,340 L 372.822,652.280 A 314,314 0 0,1 370.096,652.554 Z" fill="#0018ff"/><path d="M 340,340 L 370.096,652.554 A 314,314 0 0,1 367.367,652.805 Z" fill="#0016ff"/><path d="M 340,340 L 367.367,652.805 A 314,314 0 0,1 364.636,653.032 Z" fill="#0014ff"/><path d="M 340,340 L 364.636,653.032 A 314,314 0 0,1 361.904,653.235 Z" fill="#0012ff"/><path d="M 340,340 L 361.904,653.235 A 314,314 0 0,1 359.169,653.414 Z" fill="#0010ff"/><path d="M 340,340 L 359.169,653.414 A 314,314 0 0,1 356.433,653.570 Z" fill="#000eff"/><path d="M 340,340 L 356.433,653.570 A 314,314 0 0,1 353.696,653.701 Z" fill="#000cff"/><path d="M 340,340 L 353.696,653.701 A 314,314 0 0,1 350.958,653.809 Z" fill="#000aff"/><path d="M 340,340 L 350.958,653.809 A 314,314 0 0,1 348.220,653.892 Z" fill="#0007ff"/><path d="M 340,340 L 348.220,653.892 A 314,314 0 0,1 345.480,653.952 Z" fill="#0005ff"/><path d="M 340,340 L 345.480,653.952 A 314,314 0 0,1 342.740,653.988 Z" fill="#0003ff"/><path d="M 340,340 L 342.740,653.988 A 314,314 0 0,1 340.000,654.000 Z" fill="#0001ff"/><path d="M 340,340 L 340.000,654.000 A 314,314 0 0,1 337.260,653.988 Z" fill="#0100ff"/><path d="M 340,340 L 337.260,653.988 A 314,314 0 0,1 334.520,653.952 Z" fill="#0300ff"/><path d="M 340,340 L 334.520,653.952 A 314,314 0 0,1 331.780,653.892 Z" fill="#0500ff"/><path d="M 340,340 L 331.780,653.892 A 314,314 0 0,1 329.042,653.809 Z" fill="#0700ff"/><path d="M 340,340 L 329.042,653.809 A 314,314 0 0,1 326.304,653.701 Z" fill="#0a00ff"/><path d="M 340,340 L 326.304,653.701 A 314,314 0 0,1 323.567,653.570 Z" fill="#0c00ff"/><path d="M 340,340 L 323.567,653.570 A 314,314 0 0,1 320.831,653.414 Z" fill="#0e00ff"/><path d="M 340,340 L 320.831,653.414 A 314,314 0 0,1 318.096,653.235 Z" fill="#1000ff"/><path d="M 340,340 L 318.096,653.235 A 314,314 0 0,1 315.364,653.032 Z" fill="#1200ff"/><path d="M 340,340 L 315.364,653.032 A 314,314 0 0,1 312.633,652.805 Z" fill="#1400ff"/><path d="M 340,340 L 312.633,652.805 A 314,314 0 0,1 309.904,652.554 Z" fill="#1600ff"/><path d="M 340,340 L 309.904,652.554 A 314,314 0 0,1 307.178,652.280 Z" fill="#1800ff"/><path d="M 340,340 L 307.178,652.280 A 314,314 0 0,1 304.454,651.982 Z" fill="#1b00ff"/><path d="M 340,340 L 304.454,651.982 A 314,314 0 0,1 301.733,651.659 Z" fill="#1d00ff"/><path d="M 340,340 L 301.733,651.659 A 314,314 0 0,1 299.015,651.314 Z" fill="#1f00ff"/><path d="M 340,340 L 299.015,651.314 A 314,314 0 0,1 296.300,650.944 Z" fill="#2100ff"/><path d="M 340,340 L 296.300,650.944 A 314,314 0 0,1 293.588,650.551 Z" fill="#2300ff"/><path d="M 340,340 L 293.588,650.551 A 314,314 0 0,1 290.880,650.134 Z" fill="#2500ff"/><path d="M 340,340 L 290.880,650.134 A 314,314 0 0,1 288.175,649.694 Z" fill="#2700ff"/><path d="M 340,340 L 288.175,649.694 A 314,314 0 0,1 285.474,649.230 Z" fill="#2900ff"/><path d="M 340,340 L 285.474,649.230 A 314,314 0 0,1 282.778,648.742 Z" fill="#2c00ff"/><path d="M 340,340 L 282.778,648.742 A 314,314 0 0,1 280.086,648.231 Z" fill="#2e00ff"/><path d="M 340,340 L 280.086,648.231 A 314,314 0 0,1 277.398,647.696 Z" fill="#3000ff"/><path d="M 340,340 L 277.398,647.696 A 314,314 0 0,1 274.716,647.138 Z" fill="#3200ff"/><path d="M 340,340 L 274.716,647.138 A 314,314 0 0,1 272.038,646.557 Z" fill="#3400ff"/><path d="M 340,340 L 272.038,646.557 A 314,314 0 0,1 269.365,645.952 Z" fill="#3600ff"/><path d="M 340,340 L 269.365,645.952 A 314,314 0 0,1 266.698,645.324 Z" fill="#3800ff"/><path d="M 340,340 L 266.698,645.324 A 314,314 0 0,1 264.037,644.673 Z" fill="#3a00ff"/><path d="M 340,340 L 264.037,644.673 A 314,314 0 0,1 261.381,643.998 Z" fill="#3d00ff"/><path d="M 340,340 L 261.381,643.998 A 314,314 0 0,1 258.731,643.301 Z" fill="#3f00ff"/><path d="M 340,340 L 258.731,643.301 A 314,314 0 0,1 256.087,642.580 Z" fill="#4100ff"/><path d="M 340,340 L 256.087,642.580 A 314,314 0 0,1 253.450,641.836 Z" fill="#4300ff"/><path d="M 340,340 L 253.450,641.836 A 314,314 0 0,1 250.819,641.069 Z" fill="#4500ff"/><path d="M 340,340 L 250.819,641.069 A 314,314 0 0,1 248.195,640.280 Z" fill="#4700ff"/><path d="M 340,340 L 248.195,640.280 A 314,314 0 0,1 245.578,639.467 Z" fill="#4900ff"/><path d="M 340,340 L 245.578,639.467 A 314,314 0 0,1 242.969,638.632 Z" fill="#4b00ff"/><path d="M 340,340 L 242.969,638.632 A 314,314 0 0,1 240.366,637.774 Z" fill="#4e00ff"/><path d="M 340,340 L 240.366,637.774 A 314,314 0 0,1 237.772,636.893 Z" fill="#5000ff"/><path d="M 340,340 L 237.772,636.893 A 314,314 0 0,1 235.185,635.989 Z" fill="#5200ff"/><path d="M 340,340 L 235.185,635.989 A 314,314 0 0,1 232.606,635.063 Z" fill="#5400ff"/><path d="M 340,340 L 232.606,635.063 A 314,314 0 0,1 230.035,634.115 Z" fill="#5600ff"/><path d="M 340,340 L 230.035,634.115 A 314,314 0 0,1 227.472,633.144 Z" fill="#5800ff"/><path d="M 340,340 L 227.472,633.144 A 314,314 0 0,1 224.919,632.151 Z" fill="#5a00ff"/><path d="M 340,340 L 224.919,632.151 A 314,314 0 0,1 222.374,631.136 Z" fill="#5c00ff"/><path d="M 340,340 L 222.374,631.136 A 314,314 0 0,1 219.837,630.098 Z" fill="#5f00ff"/><path d="M 340,340 L 219.837,630.098 A 314,314 0 0,1 217.310,629.039 Z" fill="#6100ff"/><path d="M 340,340 L 217.310,629.039 A 314,314 0 0,1 214.793,627.957 Z" fill="#6300ff"/><path d="M 340,340 L 214.793,627.957 A 314,314 0 0,1 212.285,626.853 Z" fill="#6500ff"/><path d="M 340,340 L 212.285,626.853 A 314,314 0 0,1 209.786,625.728 Z" fill="#6700ff"/><path d="M 340,340 L 209.786,625.728 A 314,314 0 0,1 207.298,624.581 Z" fill="#6900ff"/><path d="M 340,340 L 207.298,624.581 A 314,314 0 0,1 204.820,623.412 Z" fill="#6b00ff"/><path d="M 340,340 L 204.820,623.412 A 314,314 0 0,1 202.351,622.221 Z" fill="#6d00ff"/><path d="M 340,340 L 202.351,622.221 A 314,314 0 0,1 199.894,621.009 Z" fill="#7000ff"/><path d="M 340,340 L 199.894,621.009 A 314,314 0 0,1 197.447,619.776 Z" fill="#7200ff"/><path d="M 340,340 L 197.447,619.776 A 314,314 0 0,1 195.011,618.521 Z" fill="#7400ff"/><path d="M 340,340 L 195.011,618.521 A 314,314 0 0,1 192.586,617.246 Z" fill="#7600ff"/><path d="M 340,340 L 192.586,617.246 A 314,314 0 0,1 190.172,615.949 Z" fill="#7800ff"/><path d="M 340,340 L 190.172,615.949 A 314,314 0 0,1 187.770,614.631 Z" fill="#7a00ff"/><path d="M 340,340 L 187.770,614.631 A 314,314 0 0,1 185.379,613.292 Z" fill="#7c00ff"/><path d="M 340,340 L 185.379,613.292 A 314,314 0 0,1 183.000,611.932 Z" fill="#7e00ff"/><path d="M 340,340 L 183.000,611.932 A 314,314 0 0,1 180.633,610.552 Z" fill="#8100ff"/><path d="M 340,340 L 180.633,610.552 A 314,314 0 0,1 178.278,609.151 Z" fill="#8300ff"/><path d="M 340,340 L 178.278,609.151 A 314,314 0 0,1 175.935,607.729 Z" fill="#8500ff"/><path d="M 340,340 L 175.935,607.729 A 314,314 0 0,1 173.605,606.287 Z" fill="#8700ff"/><path d="M 340,340 L 173.605,606.287 A 314,314 0 0,1 171.288,604.825 Z" fill="#8900ff"/><path d="M 340,340 L 171.288,604.825 A 314,314 0 0,1 168.983,603.343 Z" fill="#8b00ff"/><path d="M 340,340 L 168.983,603.343 A 314,314 0 0,1 166.692,601.840 Z" fill="#8d00ff"/><path d="M 340,340 L 166.692,601.840 A 314,314 0 0,1 164.413,600.318 Z" fill="#8f00ff"/><path d="M 340,340 L 164.413,600.318 A 314,314 0 0,1 162.148,598.776 Z" fill="#9200ff"/><path d="M 340,340 L 162.148,598.776 A 314,314 0 0,1 159.897,597.214 Z" fill="#9400ff"/><path d="M 340,340 L 159.897,597.214 A 314,314 0 0,1 157.659,595.632 Z" fill="#9600ff"/><path d="M 340,340 L 157.659,595.632 A 314,314 0 0,1 155.435,594.031 Z" fill="#9800ff"/><path d="M 340,340 L 155.435,594.031 A 314,314 0 0,1 153.226,592.411 Z" fill="#9a00ff"/><path d="M 340,340 L 153.226,592.411 A 314,314 0 0,1 151.030,590.772 Z" fill="#9c00ff"/><path d="M 340,340 L 151.030,590.772 A 314,314 0 0,1 148.849,589.113 Z" fill="#9e00ff"/><path d="M 340,340 L 148.849,589.113 A 314,314 0 0,1 146.682,587.435 Z" fill="#a000ff"/><path d="M 340,340 L 146.682,587.435 A 314,314 0 0,1 144.530,585.739 Z" fill="#a300ff"/><path d="M 340,340 L 144.530,585.739 A 314,314 0 0,1 142.393,584.024 Z" fill="#a500ff"/><path d="M 340,340 L 142.393,584.024 A 314,314 0 0,1 140.271,582.290 Z" fill="#a700ff"/><path d="M 340,340 L 140.271,582.290 A 314,314 0 0,1 138.165,580.538 Z" fill="#a900ff"/><path d="M 340,340 L 138.165,580.538 A 314,314 0 0,1 136.073,578.767 Z" fill="#ab00ff"/><path d="M 340,340 L 136.073,578.767 A 314,314 0 0,1 133.997,576.979 Z" fill="#ad00ff"/><path d="M 340,340 L 133.997,576.979 A 314,314 0 0,1 131.937,575.172 Z" fill="#af00ff"/><path d="M 340,340 L 131.937,575.172 A 314,314 0 0,1 129.893,573.347 Z" fill="#b100ff"/><path d="M 340,340 L 129.893,573.347 A 314,314 0 0,1 127.865,571.505 Z" fill="#b400ff"/><path d="M 340,340 L 127.865,571.505 A 314,314 0 0,1 125.853,569.645 Z" fill="#b600ff"/><path d="M 340,340 L 125.853,569.645 A 314,314 0 0,1 123.857,567.768 Z" fill="#b800ff"/><path d="M 340,340 L 123.857,567.768 A 314,314 0 0,1 121.877,565.873 Z" fill="#ba00ff"/><path d="M 340,340 L 121.877,565.873 A 314,314 0 0,1 119.914,563.961 Z" fill="#bc00ff"/><path d="M 340,340 L 119.914,563.961 A 314,314 0 0,1 117.968,562.032 Z" fill="#be00ff"/><path d="M 340,340 L 117.968,562.032 A 314,314 0 0,1 116.039,560.086 Z" fill="#c000ff"/><path d="M 340,340 L 116.039,560.086 A 314,314 0 0,1 114.127,558.123 Z" fill="#c200ff"/><path d="M 340,340 L 114.127,558.123 A 314,314 0 0,1 112.232,556.143 Z" fill="#c500ff"/><path d="M 340,340 L 112.232,556.143 A 314,314 0 0,1 110.355,554.147 Z" fill="#c700ff"/><path d="M 340,340 L 110.355,554.147 A 314,314 0 0,1 108.495,552.135 Z" fill="#c900ff"/><path d="M 340,340 L 108.495,552.135 A 314,314 0 0,1 106.653,550.107 Z" fill="#cb00ff"/><path d="M 340,340 L 106.653,550.107 A 314,314 0 0,1 104.828,548.063 Z" fill="#cd00ff"/><path d="M 340,340 L 104.828,548.063 A 314,314 0 0,1 103.021,546.003 Z" fill="#cf00ff"/><path d="M 340,340 L 103.021,546.003 A 314,314 0 0,1 101.233,543.927 Z" fill="#d100ff"/><path d="M 340,340 L 101.233,543.927 A 314,314 0 0,1 99.462,541.835 Z" fill="#d300ff"/><path d="M 340,340 L 99.462,541.835 A 314,314 0 0,1 97.710,539.729 Z" fill="#d600ff"/><path d="M 340,340 L 97.710,539.729 A 314,314 0 0,1 95.976,537.607 Z" fill="#d800ff"/><path d="M 340,340 L 95.976,537.607 A 314,314 0 0,1 94.261,535.470 Z" fill="#da00ff"/><path d="M 340,340 L 94.261,535.470 A 314,314 0 0,1 92.565,533.318 Z" fill="#dc00ff"/><path d="M 340,340 L 92.565,533.318 A 314,314 0 0,1 90.887,531.151 Z" fill="#de00ff"/><path d="M 340,340 L 90.887,531.151 A 314,314 0 0,1 89.228,528.970 Z" fill="#e000ff"/><path d="M 340,340 L 89.228,528.970 A 314,314 0 0,1 87.589,526.774 Z" fill="#e200ff"/><path d="M 340,340 L 87.589,526.774 A 314,314 0 0,1 85.969,524.565 Z" fill="#e400ff"/><path d="M 340,340 L 85.969,524.565 A 314,314 0 0,1 84.368,522.341 Z" fill="#e700ff"/><path d="M 340,340 L 84.368,522.341 A 314,314 0 0,1 82.786,520.103 Z" fill="#e900ff"/><path d="M 340,340 L 82.786,520.103 A 314,314 0 0,1 81.224,517.852 Z" fill="#eb00ff"/><path d="M 340,340 L 81.224,517.852 A 314,314 0 0,1 79.682,515.587 Z" fill="#ed00ff"/><path d="M 340,340 L 79.682,515.587 A 314,314 0 0,1 78.160,513.308 Z" fill="#ef00ff"/><path d="M 340,340 L 78.160,513.308 A 314,314 0 0,1 76.657,511.017 Z" fill="#f100ff"/><path d="M 340,340 L 76.657,511.017 A 314,314 0 0,1 75.175,508.712 Z" fill="#f300ff"/><path d="M 340,340 L 75.175,508.712 A 314,314 0 0,1 73.713,506.395 Z" fill="#f500ff"/><path d="M 340,340 L 73.713,506.395 A 314,314 0 0,1 72.271,504.065 Z" fill="#f800ff"/><path d="M 340,340 L 72.271,504.065 A 314,314 0 0,1 70.849,501.722 Z" fill="#fa00ff"/><path d="M 340,340 L 70.849,501.722 A 314,314 0 0,1 69.448,499.367 Z" fill="#fc00ff"/><path d="M 340,340 L 69.448,499.367 A 314,314 0 0,1 68.068,497.000 Z" fill="#fe00ff"/><path d="M 340,340 L 68.068,497.000 A 314,314 0 0,1 66.708,494.621 Z" fill="#ff00fe"/><path d="M 340,340 L 66.708,494.621 A 314,314 0 0,1 65.369,492.230 Z" fill="#ff00fc"/><path d="M 340,340 L 65.369,492.230 A 314,314 0 0,1 64.051,489.828 Z" fill="#ff00fa"/><path d="M 340,340 L 64.051,489.828 A 314,314 0 0,1 62.754,487.414 Z" fill="#ff00f8"/><path d="M 340,340 L 62.754,487.414 A 314,314 0 0,1 61.479,484.989 Z" fill="#ff00f5"/><path d="M 340,340 L 61.479,484.989 A 314,314 0 0,1 60.224,482.553 Z" fill="#ff00f3"/><path d="M 340,340 L 60.224,482.553 A 314,314 0 0,1 58.991,480.106 Z" fill="#ff00f1"/><path d="M 340,340 L 58.991,480.106 A 314,314 0 0,1 57.779,477.649 Z" fill="#ff00ef"/><path d="M 340,340 L 57.779,477.649 A 314,314 0 0,1 56.588,475.180 Z" fill="#ff00ed"/><path d="M 340,340 L 56.588,475.180 A 314,314 0 0,1 55.419,472.702 Z" fill="#ff00eb"/><path d="M 340,340 L 55.419,472.702 A 314,314 0 0,1 54.272,470.214 Z" fill="#ff00e9"/><path d="M 340,340 L 54.272,470.214 A 314,314 0 0,1 53.147,467.715 Z" fill="#ff00e7"/><path d="M 340,340 L 53.147,467.715 A 314,314 0 0,1 52.043,465.207 Z" fill="#ff00e4"/><path d="M 340,340 L 52.043,465.207 A 314,314 0 0,1 50.961,462.690 Z" fill="#ff00e2"/><path d="M 340,340 L 50.961,462.690 A 314,314 0 0,1 49.902,460.163 Z" fill="#ff00e0"/><path d="M 340,340 L 49.902,460.163 A 314,314 0 0,1 48.864,457.626 Z" fill="#ff00de"/><path d="M 340,340 L 48.864,457.626 A 314,314 0 0,1 47.849,455.081 Z" fill="#ff00dc"/><path d="M 340,340 L 47.849,455.081 A 314,314 0 0,1 46.856,452.528 Z" fill="#ff00da"/><path d="M 340,340 L 46.856,452.528 A 314,314 0 0,1 45.885,449.965 Z" fill="#ff00d8"/><path d="M 340,340 L 45.885,449.965 A 314,314 0 0,1 44.937,447.394 Z" fill="#ff00d6"/><path d="M 340,340 L 44.937,447.394 A 314,314 0 0,1 44.011,444.815 Z" fill="#ff00d3"/><path d="M 340,340 L 44.011,444.815 A 314,314 0 0,1 43.107,442.228 Z" fill="#ff00d1"/><path d="M 340,340 L 43.107,442.228 A 314,314 0 0,1 42.226,439.634 Z" fill="#ff00cf"/><path d="M 340,340 L 42.226,439.634 A 314,314 0 0,1 41.368,437.031 Z" fill="#ff00cd"/><path d="M 340,340 L 41.368,437.031 A 314,314 0 0,1 40.533,434.422 Z" fill="#ff00cb"/><path d="M 340,340 L 40.533,434.422 A 314,314 0 0,1 39.720,431.805 Z" fill="#ff00c9"/><path d="M 340,340 L 39.720,431.805 A 314,314 0 0,1 38.931,429.181 Z" fill="#ff00c7"/><path d="M 340,340 L 38.931,429.181 A 314,314 0 0,1 38.164,426.550 Z" fill="#ff00c5"/><path d="M 340,340 L 38.164,426.550 A 314,314 0 0,1 37.420,423.913 Z" fill="#ff00c2"/><path d="M 340,340 L 37.420,423.913 A 314,314 0 0,1 36.699,421.269 Z" fill="#ff00c0"/><path d="M 340,340 L 36.699,421.269 A 314,314 0 0,1 36.002,418.619 Z" fill="#ff00be"/><path d="M 340,340 L 36.002,418.619 A 314,314 0 0,1 35.327,415.963 Z" fill="#ff00bc"/><path d="M 340,340 L 35.327,415.963 A 314,314 0 0,1 34.676,413.302 Z" fill="#ff00ba"/><path d="M 340,340 L 34.676,413.302 A 314,314 0 0,1 34.048,410.635 Z" fill="#ff00b8"/><path d="M 340,340 L 34.048,410.635 A 314,314 0 0,1 33.443,407.962 Z" fill="#ff00b6"/><path d="M 340,340 L 33.443,407.962 A 314,314 0 0,1 32.862,405.284 Z" fill="#ff00b4"/><path d="M 340,340 L 32.862,405.284 A 314,314 0 0,1 32.304,402.602 Z" fill="#ff00b1"/><path d="M 340,340 L 32.304,402.602 A 314,314 0 0,1 31.769,399.914 Z" fill="#ff00af"/><path d="M 340,340 L 31.769,399.914 A 314,314 0 0,1 31.258,397.222 Z" fill="#ff00ad"/><path d="M 340,340 L 31.258,397.222 A 314,314 0 0,1 30.770,394.526 Z" fill="#ff00ab"/><path d="M 340,340 L 30.770,394.526 A 314,314 0 0,1 30.306,391.825 Z" fill="#ff00a9"/><path d="M 340,340 L 30.306,391.825 A 314,314 0 0,1 29.866,389.120 Z" fill="#ff00a7"/><path d="M 340,340 L 29.866,389.120 A 314,314 0 0,1 29.449,386.412 Z" fill="#ff00a5"/><path d="M 340,340 L 29.449,386.412 A 314,314 0 0,1 29.056,383.700 Z" fill="#ff00a3"/><path d="M 340,340 L 29.056,383.700 A 314,314 0 0,1 28.686,380.985 Z" fill="#ff00a0"/><path d="M 340,340 L 28.686,380.985 A 314,314 0 0,1 28.341,378.267 Z" fill="#ff009e"/><path d="M 340,340 L 28.341,378.267 A 314,314 0 0,1 28.018,375.546 Z" fill="#ff009c"/><path d="M 340,340 L 28.018,375.546 A 314,314 0 0,1 27.720,372.822 Z" fill="#ff009a"/><path d="M 340,340 L 27.720,372.822 A 314,314 0 0,1 27.446,370.096 Z" fill="#ff0098"/><path d="M 340,340 L 27.446,370.096 A 314,314 0 0,1 27.195,367.367 Z" fill="#ff0096"/><path d="M 340,340 L 27.195,367.367 A 314,314 0 0,1 26.968,364.636 Z" fill="#ff0094"/><path d="M 340,340 L 26.968,364.636 A 314,314 0 0,1 26.765,361.904 Z" fill="#ff0092"/><path d="M 340,340 L 26.765,361.904 A 314,314 0 0,1 26.586,359.169 Z" fill="#ff008f"/><path d="M 340,340 L 26.586,359.169 A 314,314 0 0,1 26.430,356.433 Z" fill="#ff008d"/><path d="M 340,340 L 26.430,356.433 A 314,314 0 0,1 26.299,353.696 Z" fill="#ff008b"/><path d="M 340,340 L 26.299,353.696 A 314,314 0 0,1 26.191,350.958 Z" fill="#ff0089"/><path d="M 340,340 L 26.191,350.958 A 314,314 0 0,1 26.108,348.220 Z" fill="#ff0087"/><path d="M 340,340 L 26.108,348.220 A 314,314 0 0,1 26.048,345.480 Z" fill="#ff0085"/><path d="M 340,340 L 26.048,345.480 A 314,314 0 0,1 26.012,342.740 Z" fill="#ff0083"/><path d="M 340,340 L 26.012,342.740 A 314,314 0 0,1 26.000,340.000 Z" fill="#ff0081"/><path d="M 340,340 L 26.000,340.000 A 314,314 0 0,1 26.012,337.260 Z" fill="#ff007e"/><path d="M 340,340 L 26.012,337.260 A 314,314 0 0,1 26.048,334.520 Z" fill="#ff007c"/><path d="M 340,340 L 26.048,334.520 A 314,314 0 0,1 26.108,331.780 Z" fill="#ff007a"/><path d="M 340,340 L 26.108,331.780 A 314,314 0 0,1 26.191,329.042 Z" fill="#ff0078"/><path d="M 340,340 L 26.191,329.042 A 314,314 0 0,1 26.299,326.304 Z" fill="#ff0076"/><path d="M 340,340 L 26.299,326.304 A 314,314 0 0,1 26.430,323.567 Z" fill="#ff0074"/><path d="M 340,340 L 26.430,323.567 A 314,314 0 0,1 26.586,320.831 Z" fill="#ff0072"/><path d="M 340,340 L 26.586,320.831 A 314,314 0 0,1 26.765,318.096 Z" fill="#ff0070"/><path d="M 340,340 L 26.765,318.096 A 314,314 0 0,1 26.968,315.364 Z" fill="#ff006d"/><path d="M 340,340 L 26.968,315.364 A 314,314 0 0,1 27.195,312.633 Z" fill="#ff006b"/><path d="M 340,340 L 27.195,312.633 A 314,314 0 0,1 27.446,309.904 Z" fill="#ff0069"/><path d="M 340,340 L 27.446,309.904 A 314,314 0 0,1 27.720,307.178 Z" fill="#ff0067"/><path d="M 340,340 L 27.720,307.178 A 314,314 0 0,1 28.018,304.454 Z" fill="#ff0065"/><path d="M 340,340 L 28.018,304.454 A 314,314 0 0,1 28.341,301.733 Z" fill="#ff0063"/><path d="M 340,340 L 28.341,301.733 A 314,314 0 0,1 28.686,299.015 Z" fill="#ff0061"/><path d="M 340,340 L 28.686,299.015 A 314,314 0 0,1 29.056,296.300 Z" fill="#ff005f"/><path d="M 340,340 L 29.056,296.300 A 314,314 0 0,1 29.449,293.588 Z" fill="#ff005c"/><path d="M 340,340 L 29.449,293.588 A 314,314 0 0,1 29.866,290.880 Z" fill="#ff005a"/><path d="M 340,340 L 29.866,290.880 A 314,314 0 0,1 30.306,288.175 Z" fill="#ff0058"/><path d="M 340,340 L 30.306,288.175 A 314,314 0 0,1 30.770,285.474 Z" fill="#ff0056"/><path d="M 340,340 L 30.770,285.474 A 314,314 0 0,1 31.258,282.778 Z" fill="#ff0054"/><path d="M 340,340 L 31.258,282.778 A 314,314 0 0,1 31.769,280.086 Z" fill="#ff0052"/><path d="M 340,340 L 31.769,280.086 A 314,314 0 0,1 32.304,277.398 Z" fill="#ff0050"/><path d="M 340,340 L 32.304,277.398 A 314,314 0 0,1 32.862,274.716 Z" fill="#ff004e"/><path d="M 340,340 L 32.862,274.716 A 314,314 0 0,1 33.443,272.038 Z" fill="#ff004b"/><path d="M 340,340 L 33.443,272.038 A 314,314 0 0,1 34.048,269.365 Z" fill="#ff0049"/><path d="M 340,340 L 34.048,269.365 A 314,314 0 0,1 34.676,266.698 Z" fill="#ff0047"/><path d="M 340,340 L 34.676,266.698 A 314,314 0 0,1 35.327,264.037 Z" fill="#ff0045"/><path d="M 340,340 L 35.327,264.037 A 314,314 0 0,1 36.002,261.381 Z" fill="#ff0043"/><path d="M 340,340 L 36.002,261.381 A 314,314 0 0,1 36.699,258.731 Z" fill="#ff0041"/><path d="M 340,340 L 36.699,258.731 A 314,314 0 0,1 37.420,256.087 Z" fill="#ff003f"/><path d="M 340,340 L 37.420,256.087 A 314,314 0 0,1 38.164,253.450 Z" fill="#ff003d"/><path d="M 340,340 L 38.164,253.450 A 314,314 0 0,1 38.931,250.819 Z" fill="#ff003a"/><path d="M 340,340 L 38.931,250.819 A 314,314 0 0,1 39.720,248.195 Z" fill="#ff0038"/><path d="M 340,340 L 39.720,248.195 A 314,314 0 0,1 40.533,245.578 Z" fill="#ff0036"/><path d="M 340,340 L 40.533,245.578 A 314,314 0 0,1 41.368,242.969 Z" fill="#ff0034"/><path d="M 340,340 L 41.368,242.969 A 314,314 0 0,1 42.226,240.366 Z" fill="#ff0032"/><path d="M 340,340 L 42.226,240.366 A 314,314 0 0,1 43.107,237.772 Z" fill="#ff0030"/><path d="M 340,340 L 43.107,237.772 A 314,314 0 0,1 44.011,235.185 Z" fill="#ff002e"/><path d="M 340,340 L 44.011,235.185 A 314,314 0 0,1 44.937,232.606 Z" fill="#ff002c"/><path d="M 340,340 L 44.937,232.606 A 314,314 0 0,1 45.885,230.035 Z" fill="#ff0029"/><path d="M 340,340 L 45.885,230.035 A 314,314 0 0,1 46.856,227.472 Z" fill="#ff0027"/><path d="M 340,340 L 46.856,227.472 A 314,314 0 0,1 47.849,224.919 Z" fill="#ff0025"/><path d="M 340,340 L 47.849,224.919 A 314,314 0 0,1 48.864,222.374 Z" fill="#ff0023"/><path d="M 340,340 L 48.864,222.374 A 314,314 0 0,1 49.902,219.837 Z" fill="#ff0021"/><path d="M 340,340 L 49.902,219.837 A 314,314 0 0,1 50.961,217.310 Z" fill="#ff001f"/><path d="M 340,340 L 50.961,217.310 A 314,314 0 0,1 52.043,214.793 Z" fill="#ff001d"/><path d="M 340,340 L 52.043,214.793 A 314,314 0 0,1 53.147,212.285 Z" fill="#ff001b"/><path d="M 340,340 L 53.147,212.285 A 314,314 0 0,1 54.272,209.786 Z" fill="#ff0018"/><path d="M 340,340 L 54.272,209.786 A 314,314 0 0,1 55.419,207.298 Z" fill="#ff0016"/><path d="M 340,340 L 55.419,207.298 A 314,314 0 0,1 56.588,204.820 Z" fill="#ff0014"/><path d="M 340,340 L 56.588,204.820 A 314,314 0 0,1 57.779,202.351 Z" fill="#ff0012"/><path d="M 340,340 L 57.779,202.351 A 314,314 0 0,1 58.991,199.894 Z" fill="#ff0010"/><path d="M 340,340 L 58.991,199.894 A 314,314 0 0,1 60.224,197.447 Z" fill="#ff000e"/><path d="M 340,340 L 60.224,197.447 A 314,314 0 0,1 61.479,195.011 Z" fill="#ff000c"/><path d="M 340,340 L 61.479,195.011 A 314,314 0 0,1 62.754,192.586 Z" fill="#ff000a"/><path d="M 340,340 L 62.754,192.586 A 314,314 0 0,1 64.051,190.172 Z" fill="#ff0007"/><path d="M 340,340 L 64.051,190.172 A 314,314 0 0,1 65.369,187.770 Z" fill="#ff0005"/><path d="M 340,340 L 65.369,187.770 A 314,314 0 0,1 66.708,185.379 Z" fill="#ff0003"/><path d="M 340,340 L 66.708,185.379 A 314,314 0 0,1 68.068,183.000 Z" fill="#ff0001"/><path d="M 340,340 L 68.068,183.000 A 314,314 0 0,1 69.448,180.633 Z" fill="#ff0100"/><path d="M 340,340 L 69.448,180.633 A 314,314 0 0,1 70.849,178.278 Z" fill="#ff0300"/><path d="M 340,340 L 70.849,178.278 A 314,314 0 0,1 72.271,175.935 Z" fill="#ff0500"/><path d="M 340,340 L 72.271,175.935 A 314,314 0 0,1 73.713,173.605 Z" fill="#ff0700"/><path d="M 340,340 L 73.713,173.605 A 314,314 0 0,1 75.175,171.288 Z" fill="#ff0a00"/><path d="M 340,340 L 75.175,171.288 A 314,314 0 0,1 76.657,168.983 Z" fill="#ff0c00"/><path d="M 340,340 L 76.657,168.983 A 314,314 0 0,1 78.160,166.692 Z" fill="#ff0e00"/><path d="M 340,340 L 78.160,166.692 A 314,314 0 0,1 79.682,164.413 Z" fill="#ff1000"/><path d="M 340,340 L 79.682,164.413 A 314,314 0 0,1 81.224,162.148 Z" fill="#ff1200"/><path d="M 340,340 L 81.224,162.148 A 314,314 0 0,1 82.786,159.897 Z" fill="#ff1400"/><path d="M 340,340 L 82.786,159.897 A 314,314 0 0,1 84.368,157.659 Z" fill="#ff1600"/><path d="M 340,340 L 84.368,157.659 A 314,314 0 0,1 85.969,155.435 Z" fill="#ff1800"/><path d="M 340,340 L 85.969,155.435 A 314,314 0 0,1 87.589,153.226 Z" fill="#ff1b00"/><path d="M 340,340 L 87.589,153.226 A 314,314 0 0,1 89.228,151.030 Z" fill="#ff1d00"/><path d="M 340,340 L 89.228,151.030 A 314,314 0 0,1 90.887,148.849 Z" fill="#ff1f00"/><path d="M 340,340 L 90.887,148.849 A 314,314 0 0,1 92.565,146.682 Z" fill="#ff2100"/><path d="M 340,340 L 92.565,146.682 A 314,314 0 0,1 94.261,144.530 Z" fill="#ff2300"/><path d="M 340,340 L 94.261,144.530 A 314,314 0 0,1 95.976,142.393 Z" fill="#ff2500"/><path d="M 340,340 L 95.976,142.393 A 314,314 0 0,1 97.710,140.271 Z" fill="#ff2700"/><path d="M 340,340 L 97.710,140.271 A 314,314 0 0,1 99.462,138.165 Z" fill="#ff2900"/><path d="M 340,340 L 99.462,138.165 A 314,314 0 0,1 101.233,136.073 Z" fill="#ff2c00"/><path d="M 340,340 L 101.233,136.073 A 314,314 0 0,1 103.021,133.997 Z" fill="#ff2e00"/><path d="M 340,340 L 103.021,133.997 A 314,314 0 0,1 104.828,131.937 Z" fill="#ff3000"/><path d="M 340,340 L 104.828,131.937 A 314,314 0 0,1 106.653,129.893 Z" fill="#ff3200"/><path d="M 340,340 L 106.653,129.893 A 314,314 0 0,1 108.495,127.865 Z" fill="#ff3400"/><path d="M 340,340 L 108.495,127.865 A 314,314 0 0,1 110.355,125.853 Z" fill="#ff3600"/><path d="M 340,340 L 110.355,125.853 A 314,314 0 0,1 112.232,123.857 Z" fill="#ff3800"/><path d="M 340,340 L 112.232,123.857 A 314,314 0 0,1 114.127,121.877 Z" fill="#ff3a00"/><path d="M 340,340 L 114.127,121.877 A 314,314 0 0,1 116.039,119.914 Z" fill="#ff3d00"/><path d="M 340,340 L 116.039,119.914 A 314,314 0 0,1 117.968,117.968 Z" fill="#ff3f00"/><path d="M 340,340 L 117.968,117.968 A 314,314 0 0,1 119.914,116.039 Z" fill="#ff4100"/><path d="M 340,340 L 119.914,116.039 A 314,314 0 0,1 121.877,114.127 Z" fill="#ff4300"/><path d="M 340,340 L 121.877,114.127 A 314,314 0 0,1 123.857,112.232 Z" fill="#ff4500"/><path d="M 340,340 L 123.857,112.232 A 314,314 0 0,1 125.853,110.355 Z" fill="#ff4700"/><path d="M 340,340 L 125.853,110.355 A 314,314 0 0,1 127.865,108.495 Z" fill="#ff4900"/><path d="M 340,340 L 127.865,108.495 A 314,314 0 0,1 129.893,106.653 Z" fill="#ff4b00"/><path d="M 340,340 L 129.893,106.653 A 314,314 0 0,1 131.937,104.828 Z" fill="#ff4e00"/><path d="M 340,340 L 131.937,104.828 A 314,314 0 0,1 133.997,103.021 Z" fill="#ff5000"/><path d="M 340,340 L 133.997,103.021 A 314,314 0 0,1 136.073,101.233 Z" fill="#ff5200"/><path d="M 340,340 L 136.073,101.233 A 314,314 0 0,1 138.165,99.462 Z" fill="#ff5400"/><path d="M 340,340 L 138.165,99.462 A 314,314 0 0,1 140.271,97.710 Z" fill="#ff5600"/><path d="M 340,340 L 140.271,97.710 A 314,314 0 0,1 142.393,95.976 Z" fill="#ff5800"/><path d="M 340,340 L 142.393,95.976 A 314,314 0 0,1 144.530,94.261 Z" fill="#ff5a00"/><path d="M 340,340 L 144.530,94.261 A 314,314 0 0,1 146.682,92.565 Z" fill="#ff5c00"/><path d="M 340,340 L 146.682,92.565 A 314,314 0 0,1 148.849,90.887 Z" fill="#ff5f00"/><path d="M 340,340 L 148.849,90.887 A 314,314 0 0,1 151.030,89.228 Z" fill="#ff6100"/><path d="M 340,340 L 151.030,89.228 A 314,314 0 0,1 153.226,87.589 Z" fill="#ff6300"/><path d="M 340,340 L 153.226,87.589 A 314,314 0 0,1 155.435,85.969 Z" fill="#ff6500"/><path d="M 340,340 L 155.435,85.969 A 314,314 0 0,1 157.659,84.368 Z" fill="#ff6700"/><path d="M 340,340 L 157.659,84.368 A 314,314 0 0,1 159.897,82.786 Z" fill="#ff6900"/><path d="M 340,340 L 159.897,82.786 A 314,314 0 0,1 162.148,81.224 Z" fill="#ff6b00"/><path d="M 340,340 L 162.148,81.224 A 314,314 0 0,1 164.413,79.682 Z" fill="#ff6d00"/><path d="M 340,340 L 164.413,79.682 A 314,314 0 0,1 166.692,78.160 Z" fill="#ff7000"/><path d="M 340,340 L 166.692,78.160 A 314,314 0 0,1 168.983,76.657 Z" fill="#ff7200"/><path d="M 340,340 L 168.983,76.657 A 314,314 0 0,1 171.288,75.175 Z" fill="#ff7400"/><path d="M 340,340 L 171.288,75.175 A 314,314 0 0,1 173.605,73.713 Z" fill="#ff7600"/><path d="M 340,340 L 173.605,73.713 A 314,314 0 0,1 175.935,72.271 Z" fill="#ff7800"/><path d="M 340,340 L 175.935,72.271 A 314,314 0 0,1 178.278,70.849 Z" fill="#ff7a00"/><path d="M 340,340 L 178.278,70.849 A 314,314 0 0,1 180.633,69.448 Z" fill="#ff7c00"/><path d="M 340,340 L 180.633,69.448 A 314,314 0 0,1 183.000,68.068 Z" fill="#ff7e00"/><path d="M 340,340 L 183.000,68.068 A 314,314 0 0,1 185.379,66.708 Z" fill="#ff8100"/><path d="M 340,340 L 185.379,66.708 A 314,314 0 0,1 187.770,65.369 Z" fill="#ff8300"/><path d="M 340,340 L 187.770,65.369 A 314,314 0 0,1 190.172,64.051 Z" fill="#ff8500"/><path d="M 340,340 L 190.172,64.051 A 314,314 0 0,1 192.586,62.754 Z" fill="#ff8700"/><path d="M 340,340 L 192.586,62.754 A 314,314 0 0,1 195.011,61.479 Z" fill="#ff8900"/><path d="M 340,340 L 195.011,61.479 A 314,314 0 0,1 197.447,60.224 Z" fill="#ff8b00"/><path d="M 340,340 L 197.447,60.224 A 314,314 0 0,1 199.894,58.991 Z" fill="#ff8d00"/><path d="M 340,340 L 199.894,58.991 A 314,314 0 0,1 202.351,57.779 Z" fill="#ff8f00"/><path d="M 340,340 L 202.351,57.779 A 314,314 0 0,1 204.820,56.588 Z" fill="#ff9200"/><path d="M 340,340 L 204.820,56.588 A 314,314 0 0,1 207.298,55.419 Z" fill="#ff9400"/><path d="M 340,340 L 207.298,55.419 A 314,314 0 0,1 209.786,54.272 Z" fill="#ff9600"/><path d="M 340,340 L 209.786,54.272 A 314,314 0 0,1 212.285,53.147 Z" fill="#ff9800"/><path d="M 340,340 L 212.285,53.147 A 314,314 0 0,1 214.793,52.043 Z" fill="#ff9a00"/><path d="M 340,340 L 214.793,52.043 A 314,314 0 0,1 217.310,50.961 Z" fill="#ff9c00"/><path d="M 340,340 L 217.310,50.961 A 314,314 0 0,1 219.837,49.902 Z" fill="#ff9e00"/><path d="M 340,340 L 219.837,49.902 A 314,314 0 0,1 222.374,48.864 Z" fill="#ffa000"/><path d="M 340,340 L 222.374,48.864 A 314,314 0 0,1 224.919,47.849 Z" fill="#ffa300"/><path d="M 340,340 L 224.919,47.849 A 314,314 0 0,1 227.472,46.856 Z" fill="#ffa500"/><path d="M 340,340 L 227.472,46.856 A 314,314 0 0,1 230.035,45.885 Z" fill="#ffa700"/><path d="M 340,340 L 230.035,45.885 A 314,314 0 0,1 232.606,44.937 Z" fill="#ffa900"/><path d="M 340,340 L 232.606,44.937 A 314,314 0 0,1 235.185,44.011 Z" fill="#ffab00"/><path d="M 340,340 L 235.185,44.011 A 314,314 0 0,1 237.772,43.107 Z" fill="#ffad00"/><path d="M 340,340 L 237.772,43.107 A 314,314 0 0,1 240.366,42.226 Z" fill="#ffaf00"/><path d="M 340,340 L 240.366,42.226 A 314,314 0 0,1 242.969,41.368 Z" fill="#ffb100"/><path d="M 340,340 L 242.969,41.368 A 314,314 0 0,1 245.578,40.533 Z" fill="#ffb400"/><path d="M 340,340 L 245.578,40.533 A 314,314 0 0,1 248.195,39.720 Z" fill="#ffb600"/><path d="M 340,340 L 248.195,39.720 A 314,314 0 0,1 250.819,38.931 Z" fill="#ffb800"/><path d="M 340,340 L 250.819,38.931 A 314,314 0 0,1 253.450,38.164 Z" fill="#ffba00"/><path d="M 340,340 L 253.450,38.164 A 314,314 0 0,1 256.087,37.420 Z" fill="#ffbc00"/><path d="M 340,340 L 256.087,37.420 A 314,314 0 0,1 258.731,36.699 Z" fill="#ffbe00"/><path d="M 340,340 L 258.731,36.699 A 314,314 0 0,1 261.381,36.002 Z" fill="#ffc000"/><path d="M 340,340 L 261.381,36.002 A 314,314 0 0,1 264.037,35.327 Z" fill="#ffc200"/><path d="M 340,340 L 264.037,35.327 A 314,314 0 0,1 266.698,34.676 Z" fill="#ffc500"/><path d="M 340,340 L 266.698,34.676 A 314,314 0 0,1 269.365,34.048 Z" fill="#ffc700"/><path d="M 340,340 L 269.365,34.048 A 314,314 0 0,1 272.038,33.443 Z" fill="#ffc900"/><path d="M 340,340 L 272.038,33.443 A 314,314 0 0,1 274.716,32.862 Z" fill="#ffcb00"/><path d="M 340,340 L 274.716,32.862 A 314,314 0 0,1 277.398,32.304 Z" fill="#ffcd00"/><path d="M 340,340 L 277.398,32.304 A 314,314 0 0,1 280.086,31.769 Z" fill="#ffcf00"/><path d="M 340,340 L 280.086,31.769 A 314,314 0 0,1 282.778,31.258 Z" fill="#ffd100"/><path d="M 340,340 L 282.778,31.258 A 314,314 0 0,1 285.474,30.770 Z" fill="#ffd300"/><path d="M 340,340 L 285.474,30.770 A 314,314 0 0,1 288.175,30.306 Z" fill="#ffd600"/><path d="M 340,340 L 288.175,30.306 A 314,314 0 0,1 290.880,29.866 Z" fill="#ffd800"/><path d="M 340,340 L 290.880,29.866 A 314,314 0 0,1 293.588,29.449 Z" fill="#ffda00"/><path d="M 340,340 L 293.588,29.449 A 314,314 0 0,1 296.300,29.056 Z" fill="#ffdc00"/><path d="M 340,340 L 296.300,29.056 A 314,314 0 0,1 299.015,28.686 Z" fill="#ffde00"/><path d="M 340,340 L 299.015,28.686 A 314,314 0 0,1 301.733,28.341 Z" fill="#ffe000"/><path d="M 340,340 L 301.733,28.341 A 314,314 0 0,1 304.454,28.018 Z" fill="#ffe200"/><path d="M 340,340 L 304.454,28.018 A 314,314 0 0,1 307.178,27.720 Z" fill="#ffe400"/><path d="M 340,340 L 307.178,27.720 A 314,314 0 0,1 309.904,27.446 Z" fill="#ffe700"/><path d="M 340,340 L 309.904,27.446 A 314,314 0 0,1 312.633,27.195 Z" fill="#ffe900"/><path d="M 340,340 L 312.633,27.195 A 314,314 0 0,1 315.364,26.968 Z" fill="#ffeb00"/><path d="M 340,340 L 315.364,26.968 A 314,314 0 0,1 318.096,26.765 Z" fill="#ffed00"/><path d="M 340,340 L 318.096,26.765 A 314,314 0 0,1 320.831,26.586 Z" fill="#ffef00"/><path d="M 340,340 L 320.831,26.586 A 314,314 0 0,1 323.567,26.430 Z" fill="#fff100"/><path d="M 340,340 L 323.567,26.430 A 314,314 0 0,1 326.304,26.299 Z" fill="#fff300"/><path d="M 340,340 L 326.304,26.299 A 314,314 0 0,1 329.042,26.191 Z" fill="#fff500"/><path d="M 340,340 L 329.042,26.191 A 314,314 0 0,1 331.780,26.108 Z" fill="#fff800"/><path d="M 340,340 L 331.780,26.108 A 314,314 0 0,1 334.520,26.048 Z" fill="#fffa00"/><path d="M 340,340 L 334.520,26.048 A 314,314 0 0,1 337.260,26.012 Z" fill="#fffc00"/><path d="M 340,340 L 337.260,26.012 A 314,314 0 0,1 340.000,26.000 Z" fill="#fffe00"/>
  <circle cx="340" cy="340" r="314" fill="url(#white-glow)"/>
</g>
<path d="M 62.0,460.0 L 62.00,458.55 L 62.46,458.54 L 62.93,458.53 L 63.39,458.52 L 63.85,458.51 L 64.32,458.50 L 64.78,458.49 L 65.24,458.48 L 65.71,458.47 L 66.17,458.46 L 66.63,458.45 L 67.10,458.44 L 67.56,458.43 L 68.02,458.42 L 68.49,458.41 L 68.95,458.40 L 69.41,458.39 L 69.88,458.38 L 70.34,458.37 L 70.80,458.36 L 71.27,458.35 L 71.73,458.34 L 72.19,458.33 L 72.66,458.31 L 73.12,458.30 L 73.58,458.29 L 74.05,458.28 L 74.51,458.27 L 74.97,458.26 L 75.44,458.24 L 75.90,458.23 L 76.36,458.22 L 76.83,458.21 L 77.29,458.19 L 77.75,458.18 L 78.22,458.17 L 78.68,458.15 L 79.14,458.14 L 79.61,458.12 L 80.07,458.11 L 80.53,458.10 L 81.00,458.08 L 81.46,458.07 L 81.92,458.05 L 82.39,458.04 L 82.85,458.02 L 83.31,458.01 L 83.78,457.99 L 84.24,457.98 L 84.70,457.96 L 85.17,457.94 L 85.63,457.93 L 86.09,457.91 L 86.56,457.89 L 87.02,457.88 L 87.48,457.86 L 87.95,457.84 L 88.41,457.82 L 88.87,457.80 L 89.34,457.79 L 89.80,457.77 L 90.26,457.75 L 90.73,457.73 L 91.19,457.71 L 91.65,457.69 L 92.12,457.67 L 92.58,457.65 L 93.04,457.63 L 93.51,457.60 L 93.97,457.58 L 94.43,457.56 L 94.90,457.54 L 95.36,457.51 L 95.82,457.49 L 96.29,457.47 L 96.75,457.44 L 97.21,457.42 L 97.68,457.39 L 98.14,457.37 L 98.60,457.34 L 99.07,457.32 L 99.53,457.29 L 99.99,457.26 L 100.46,457.24 L 100.92,457.21 L 101.38,457.18 L 101.85,457.15 L 102.31,457.12 L 102.77,457.09 L 103.24,457.06 L 103.70,457.03 L 104.16,456.99 L 104.63,456.96 L 105.09,456.93 L 105.55,456.89 L 106.02,456.86 L 106.48,456.82 L 106.94,456.79 L 107.41,456.75 L 107.87,456.71 L 108.33,456.67 L 108.80,456.63 L 109.26,456.59 L 109.72,456.55 L 110.19,456.51 L 110.65,456.46 L 111.11,456.42 L 111.58,456.37 L 112.04,456.33 L 112.50,456.28 L 112.97,456.23 L 113.43,456.18 L 113.89,456.13 L 114.36,456.08 L 114.82,456.03 L 115.28,455.97 L 115.75,455.91 L 116.21,455.86 L 116.67,455.80 L 117.14,455.74 L 117.60,455.67 L 118.06,455.61 L 118.53,455.54 L 118.99,455.48 L 119.45,455.41 L 119.92,455.34 L 120.38,455.26 L 120.84,455.19 L 121.31,455.11 L 121.77,455.03 L 122.23,454.94 L 122.70,454.86 L 123.16,454.77 L 123.62,454.68 L 124.09,454.59 L 124.55,454.49 L 125.01,454.39 L 125.48,454.29 L 125.94,454.18 L 126.40,454.07 L 126.87,453.96 L 127.33,453.84 L 127.79,453.72 L 128.26,453.59 L 128.72,453.46 L 129.18,453.32 L 129.65,453.18 L 130.11,453.03 L 130.57,452.88 L 131.04,452.72 L 131.50,452.55 L 131.96,452.38 L 132.43,452.20 L 132.89,452.01 L 133.35,451.82 L 133.82,451.62 L 134.28,451.40 L 134.74,451.18 L 135.21,450.95 L 135.67,450.70 L 136.13,450.45 L 136.60,450.18 L 137.06,449.90 L 137.52,449.60 L 137.99,449.29 L 138.45,448.96 L 138.91,448.62 L 139.38,448.26 L 139.84,447.87 L 140.30,447.47 L 140.77,447.04 L 141.23,446.58 L 141.69,446.10 L 142.16,445.59 L 142.62,445.05 L 143.08,444.47 L 143.55,443.86 L 144.01,443.20 L 144.47,442.50 L 144.94,441.76 L 145.40,440.96 L 145.86,440.10 L 146.33,439.19 L 146.79,438.21 L 147.25,437.15 L 147.72,436.01 L 148.18,434.79 L 148.64,433.47 L 149.11,432.05 L 149.57,430.52 L 150.03,428.87 L 150.50,427.09 L 150.96,425.17 L 151.42,423.10 L 151.89,420.87 L 152.35,418.47 L 152.81,415.90 L 153.28,413.15 L 153.74,410.22 L 154.20,407.13 L 154.67,403.88 L 155.13,400.49 L 155.59,397.01 L 156.06,393.48 L 156.52,389.96 L 156.98,386.53 L 157.45,383.29 L 157.91,380.33 L 158.37,377.77 L 158.84,375.71 L 159.30,374.23 L 159.76,373.41 L 160.23,373.29 L 160.69,373.85 L 161.15,375.07 L 161.62,376.88 L 162.08,379.18 L 162.54,381.89 L 163.01,384.88 L 163.47,388.06 L 163.93,391.32 L 164.40,394.60 L 164.86,397.83 L 165.32,400.96 L 165.79,403.95 L 166.25,406.78 L 166.71,409.43 L 167.18,411.90 L 167.64,414.19 L 168.10,416.30 L 168.57,418.24 L 169.03,420.01 L 169.49,421.62 L 169.96,423.08 L 170.42,424.41 L 170.88,425.60 L 171.35,426.67 L 171.81,427.63 L 172.27,428.48 L 172.74,429.23 L 173.20,429.89 L 173.66,430.46 L 174.13,430.95 L 174.59,431.35 L 175.05,431.69 L 175.52,431.95 L 175.98,432.14 L 176.44,432.27 L 176.91,432.33 L 177.37,432.33 L 177.83,432.27 L 178.30,432.14 L 178.76,431.95 L 179.22,431.71 L 179.69,431.39 L 180.15,431.02 L 180.61,430.58 L 181.08,430.07 L 181.54,429.49 L 182.00,428.84 L 182.47,428.11 L 182.93,427.31 L 183.39,426.42 L 183.86,425.43 L 184.32,424.36 L 184.78,423.18 L 185.25,421.89 L 185.71,420.48 L 186.17,418.94 L 186.64,417.27 L 187.10,415.45 L 187.56,413.47 L 188.03,411.32 L 188.49,408.98 L 188.95,406.43 L 189.42,403.67 L 189.88,400.66 L 190.34,397.40 L 190.81,393.86 L 191.27,390.03 L 191.73,385.88 L 192.20,381.40 L 192.66,376.58 L 193.12,371.40 L 193.59,365.87 L 194.05,360.00 L 194.51,353.80 L 194.98,347.31 L 195.44,340.61 L 195.90,333.76 L 196.37,326.90 L 196.83,320.18 L 197.29,313.75 L 197.76,307.84 L 198.22,302.65 L 198.68,298.39 L 199.15,295.25 L 199.61,293.39 L 200.07,292.90 L 200.54,293.80 L 201.00,296.05 L 201.46,299.53 L 201.93,304.08 L 202.39,309.50 L 202.85,315.56 L 203.32,322.07 L 203.78,328.83 L 204.24,335.67 L 204.71,342.45 L 205.17,349.07 L 205.63,355.44 L 206.10,361.51 L 206.56,367.25 L 207.02,372.64 L 207.49,377.67 L 207.95,382.36 L 208.41,386.70 L 208.88,390.72 L 209.34,394.42 L 209.80,397.84 L 210.27,400.99 L 210.73,403.89 L 211.19,406.55 L 211.66,409.00 L 212.12,411.25 L 212.58,413.32 L 213.05,415.21 L 213.51,416.95 L 213.97,418.55 L 214.44,420.01 L 214.90,421.35 L 215.36,422.57 L 215.83,423.68 L 216.29,424.70 L 216.75,425.62 L 217.22,426.45 L 217.68,427.20 L 218.14,427.87 L 218.61,428.46 L 219.07,428.99 L 219.53,429.44 L 220.00,429.82 L 220.46,430.14 L 220.92,430.40 L 221.39,430.60 L 221.85,430.73 L 222.31,430.80 L 222.78,430.81 L 223.24,430.75 L 223.70,430.63 L 224.17,430.45 L 224.63,430.20 L 225.09,429.87 L 225.56,429.48 L 226.02,429.01 L 226.48,428.46 L 226.95,427.82 L 227.41,427.10 L 227.87,426.27 L 228.34,425.35 L 228.80,424.32 L 229.26,423.17 L 229.73,421.89 L 230.19,420.48 L 230.65,418.93 L 231.12,417.22 L 231.58,415.36 L 232.04,413.32 L 232.51,411.11 L 232.97,408.72 L 233.43,406.14 L 233.90,403.38 L 234.36,400.45 L 234.82,397.37 L 235.29,394.16 L 235.75,390.86 L 236.21,387.53 L 236.68,384.23 L 237.14,381.05 L 237.60,378.08 L 238.07,375.44 L 238.53,373.23 L 238.99,371.54 L 239.46,370.47 L 239.92,370.06 L 240.38,370.35 L 240.85,371.33 L 241.31,372.94 L 241.77,375.11 L 242.24,377.74 L 242.70,380.74 L 243.16,383.99 L 243.63,387.39 L 244.09,390.85 L 244.55,394.31 L 245.02,397.70 L 245.48,400.97 L 245.94,404.11 L 246.41,407.08 L 246.87,409.87 L 247.33,412.49 L 247.80,414.93 L 248.26,417.19 L 248.72,419.29 L 249.19,421.23 L 249.65,423.03 L 250.11,424.68 L 250.58,426.21 L 251.04,427.61 L 251.50,428.91 L 251.97,430.10 L 252.43,431.20 L 252.89,432.21 L 253.36,433.15 L 253.82,434.01 L 254.28,434.80 L 254.75,435.53 L 255.21,436.20 L 255.67,436.82 L 256.14,437.39 L 256.60,437.91 L 257.06,438.39 L 257.53,438.83 L 257.99,439.24 L 258.45,439.61 L 258.92,439.95 L 259.38,440.26 L 259.84,440.53 L 260.31,440.79 L 260.77,441.01 L 261.23,441.22 L 261.70,441.40 L 262.16,441.56 L 262.62,441.69 L 263.09,441.81 L 263.55,441.91 L 264.01,441.99 L 264.48,442.05 L 264.94,442.09 L 265.40,442.12 L 265.87,442.12 L 266.33,442.12 L 266.79,442.09 L 267.26,442.05 L 267.72,441.99 L 268.18,441.92 L 268.65,441.83 L 269.11,441.72 L 269.57,441.60 L 270.04,441.46 L 270.50,441.31 L 270.96,441.13 L 271.43,440.94 L 271.89,440.73 L 272.35,440.50 L 272.82,440.25 L 273.28,439.99 L 273.74,439.70 L 274.21,439.39 L 274.67,439.05 L 275.13,438.69 L 275.60,438.31 L 276.06,437.90 L 276.52,437.47 L 276.99,437.00 L 277.45,436.50 L 277.91,435.97 L 278.38,435.41 L 278.84,434.81 L 279.30,434.17 L 279.77,433.49 L 280.23,432.76 L 280.69,431.98 L 281.16,431.16 L 281.62,430.27 L 282.08,429.33 L 282.55,428.32 L 283.01,427.25 L 283.47,426.10 L 283.94,424.86 L 284.40,423.54 L 284.86,422.12 L 285.33,420.60 L 285.79,418.97 L 286.25,417.21 L 286.72,415.33 L 287.18,413.29 L 287.64,411.10 L 288.11,408.73 L 288.57,406.18 L 289.03,403.43 L 289.50,400.45 L 289.96,397.23 L 290.42,393.76 L 290.89,390.01 L 291.35,385.96 L 291.81,381.59 L 292.28,376.90 L 292.74,371.85 L 293.20,366.45 L 293.67,360.70 L 294.13,354.61 L 294.59,348.19 L 295.06,341.50 L 295.52,334.60 L 295.98,327.58 L 296.45,320.57 L 296.91,313.71 L 297.37,307.19 L 297.84,301.21 L 298.30,295.98 L 298.76,291.72 L 299.23,288.61 L 299.69,286.80 L 300.15,286.36 L 300.62,287.30 L 301.08,289.57 L 301.54,293.05 L 302.01,297.55 L 302.47,302.88 L 302.93,308.82 L 303.40,315.16 L 303.86,321.71 L 304.32,328.30 L 304.79,334.81 L 305.25,341.13 L 305.71,347.19 L 306.18,352.93 L 306.64,358.33 L 307.10,363.36 L 307.57,368.03 L 308.03,372.34 L 308.49,376.29 L 308.96,379.91 L 309.42,383.21 L 309.88,386.22 L 310.35,388.93 L 310.81,391.39 L 311.27,393.60 L 311.74,395.57 L 312.20,397.34 L 312.66,398.90 L 313.13,400.27 L 313.59,401.46 L 314.05,402.49 L 314.52,403.36 L 314.98,404.07 L 315.44,404.65 L 315.91,405.08 L 316.37,405.38 L 316.83,405.55 L 317.30,405.60 L 317.76,405.52 L 318.22,405.31 L 318.69,404.98 L 319.15,404.53 L 319.61,403.95 L 320.08,403.25 L 320.54,402.42 L 321.00,401.45 L 321.47,400.34 L 321.93,399.09 L 322.39,397.68 L 322.86,396.12 L 323.32,394.39 L 323.78,392.48 L 324.25,390.39 L 324.71,388.09 L 325.17,385.57 L 325.64,382.82 L 326.10,379.82 L 326.56,376.54 L 327.03,372.98 L 327.49,369.10 L 327.95,364.87 L 328.42,360.28 L 328.88,355.28 L 329.34,349.85 L 329.81,343.94 L 330.27,337.53 L 330.73,330.57 L 331.20,323.03 L 331.66,314.86 L 332.12,306.04 L 332.59,296.53 L 333.05,286.32 L 333.51,275.39 L 333.98,263.77 L 334.44,251.50 L 334.90,238.64 L 335.37,225.31 L 335.83,211.69 L 336.29,197.98 L 336.76,184.49 L 337.22,171.55 L 337.68,159.56 L 338.15,148.95 L 338.61,140.13 L 339.07,133.51 L 339.54,129.40 L 340.00,128.00 L 340.46,129.40 L 340.93,133.51 L 341.39,140.13 L 341.85,148.95 L 342.32,159.56 L 342.78,171.55 L 343.24,184.49 L 343.71,197.98 L 344.17,211.69 L 344.63,225.31 L 345.10,238.64 L 345.56,251.50 L 346.02,263.77 L 346.49,275.39 L 346.95,286.32 L 347.41,296.53 L 347.88,306.04 L 348.34,314.86 L 348.80,323.03 L 349.27,330.57 L 349.73,337.53 L 350.19,343.94 L 350.66,349.85 L 351.12,355.28 L 351.58,360.28 L 352.05,364.87 L 352.51,369.10 L 352.97,372.98 L 353.44,376.54 L 353.90,379.82 L 354.36,382.82 L 354.83,385.57 L 355.29,388.09 L 355.75,390.39 L 356.22,392.48 L 356.68,394.39 L 357.14,396.12 L 357.61,397.68 L 358.07,399.09 L 358.53,400.34 L 359.00,401.45 L 359.46,402.42 L 359.92,403.25 L 360.39,403.95 L 360.85,404.53 L 361.31,404.98 L 361.78,405.31 L 362.24,405.52 L 362.70,405.60 L 363.17,405.55 L 363.63,405.38 L 364.09,405.08 L 364.56,404.65 L 365.02,404.07 L 365.48,403.36 L 365.95,402.49 L 366.41,401.46 L 366.87,400.27 L 367.34,398.90 L 367.80,397.34 L 368.26,395.57 L 368.73,393.60 L 369.19,391.39 L 369.65,388.93 L 370.12,386.22 L 370.58,383.21 L 371.04,379.91 L 371.51,376.29 L 371.97,372.34 L 372.43,368.03 L 372.90,363.36 L 373.36,358.33 L 373.82,352.93 L 374.29,347.19 L 374.75,341.13 L 375.21,334.81 L 375.68,328.30 L 376.14,321.71 L 376.60,315.16 L 377.07,308.82 L 377.53,302.88 L 377.99,297.55 L 378.46,293.05 L 378.92,289.57 L 379.38,287.30 L 379.85,286.36 L 380.31,286.80 L 380.77,288.61 L 381.24,291.72 L 381.70,295.98 L 382.16,301.21 L 382.63,307.19 L 383.09,313.71 L 383.55,320.57 L 384.02,327.58 L 384.48,334.60 L 384.94,341.50 L 385.41,348.19 L 385.87,354.61 L 386.33,360.70 L 386.80,366.45 L 387.26,371.85 L 387.72,376.90 L 388.19,381.59 L 388.65,385.96 L 389.11,390.01 L 389.58,393.76 L 390.04,397.23 L 390.50,400.45 L 390.97,403.43 L 391.43,406.18 L 391.89,408.73 L 392.36,411.10 L 392.82,413.29 L 393.28,415.33 L 393.75,417.21 L 394.21,418.97 L 394.67,420.60 L 395.14,422.12 L 395.60,423.54 L 396.06,424.86 L 396.53,426.10 L 396.99,427.25 L 397.45,428.32 L 397.92,429.33 L 398.38,430.27 L 398.84,431.16 L 399.31,431.98 L 399.77,432.76 L 400.23,433.49 L 400.70,434.17 L 401.16,434.81 L 401.62,435.41 L 402.09,435.97 L 402.55,436.50 L 403.01,437.00 L 403.48,437.47 L 403.94,437.90 L 404.40,438.31 L 404.87,438.69 L 405.33,439.05 L 405.79,439.39 L 406.26,439.70 L 406.72,439.99 L 407.18,440.25 L 407.65,440.50 L 408.11,440.73 L 408.57,440.94 L 409.04,441.13 L 409.50,441.31 L 409.96,441.46 L 410.43,441.60 L 410.89,441.72 L 411.35,441.83 L 411.82,441.92 L 412.28,441.99 L 412.74,442.05 L 413.21,442.09 L 413.67,442.12 L 414.13,442.12 L 414.60,442.12 L 415.06,442.09 L 415.52,442.05 L 415.99,441.99 L 416.45,441.91 L 416.91,441.81 L 417.38,441.69 L 417.84,441.56 L 418.30,441.40 L 418.77,441.22 L 419.23,441.01 L 419.69,440.79 L 420.16,440.53 L 420.62,440.26 L 421.08,439.95 L 421.55,439.61 L 422.01,439.24 L 422.47,438.83 L 422.94,438.39 L 423.40,437.91 L 423.86,437.39 L 424.33,436.82 L 424.79,436.20 L 425.25,435.53 L 425.72,434.80 L 426.18,434.01 L 426.64,433.15 L 427.11,432.21 L 427.57,431.20 L 428.03,430.10 L 428.50,428.91 L 428.96,427.61 L 429.42,426.21 L 429.89,424.68 L 430.35,423.03 L 430.81,421.23 L 431.28,419.29 L 431.74,417.19 L 432.20,414.93 L 432.67,412.49 L 433.13,409.87 L 433.59,407.08 L 434.06,404.11 L 434.52,400.97 L 434.98,397.70 L 435.45,394.31 L 435.91,390.85 L 436.37,387.39 L 436.84,383.99 L 437.30,380.74 L 437.76,377.74 L 438.23,375.11 L 438.69,372.94 L 439.15,371.33 L 439.62,370.35 L 440.08,370.06 L 440.54,370.47 L 441.01,371.54 L 441.47,373.23 L 441.93,375.44 L 442.40,378.08 L 442.86,381.05 L 443.32,384.23 L 443.79,387.53 L 444.25,390.86 L 444.71,394.16 L 445.18,397.37 L 445.64,400.45 L 446.10,403.38 L 446.57,406.14 L 447.03,408.72 L 447.49,411.11 L 447.96,413.32 L 448.42,415.36 L 448.88,417.22 L 449.35,418.93 L 449.81,420.48 L 450.27,421.89 L 450.74,423.17 L 451.20,424.32 L 451.66,425.35 L 452.13,426.27 L 452.59,427.10 L 453.05,427.82 L 453.52,428.46 L 453.98,429.01 L 454.44,429.48 L 454.91,429.87 L 455.37,430.20 L 455.83,430.45 L 456.30,430.63 L 456.76,430.75 L 457.22,430.81 L 457.69,430.80 L 458.15,430.73 L 458.61,430.60 L 459.08,430.40 L 459.54,430.14 L 460.00,429.82 L 460.47,429.44 L 460.93,428.99 L 461.39,428.46 L 461.86,427.87 L 462.32,427.20 L 462.78,426.45 L 463.25,425.62 L 463.71,424.70 L 464.17,423.68 L 464.64,422.57 L 465.10,421.35 L 465.56,420.01 L 466.03,418.55 L 466.49,416.95 L 466.95,415.21 L 467.42,413.32 L 467.88,411.25 L 468.34,409.00 L 468.81,406.55 L 469.27,403.89 L 469.73,400.99 L 470.20,397.84 L 470.66,394.42 L 471.12,390.72 L 471.59,386.70 L 472.05,382.36 L 472.51,377.67 L 472.98,372.64 L 473.44,367.25 L 473.90,361.51 L 474.37,355.44 L 474.83,349.07 L 475.29,342.45 L 475.76,335.67 L 476.22,328.83 L 476.68,322.07 L 477.15,315.56 L 477.61,309.50 L 478.07,304.08 L 478.54,299.53 L 479.00,296.05 L 479.46,293.80 L 479.93,292.90 L 480.39,293.39 L 480.85,295.25 L 481.32,298.39 L 481.78,302.65 L 482.24,307.84 L 482.71,313.75 L 483.17,320.18 L 483.63,326.90 L 484.10,333.76 L 484.56,340.61 L 485.02,347.31 L 485.49,353.80 L 485.95,360.00 L 486.41,365.87 L 486.88,371.40 L 487.34,376.58 L 487.80,381.40 L 488.27,385.88 L 488.73,390.03 L 489.19,393.86 L 489.66,397.40 L 490.12,400.66 L 490.58,403.67 L 491.05,406.43 L 491.51,408.98 L 491.97,411.32 L 492.44,413.47 L 492.90,415.45 L 493.36,417.27 L 493.83,418.94 L 494.29,420.48 L 494.75,421.89 L 495.22,423.18 L 495.68,424.36 L 496.14,425.43 L 496.61,426.42 L 497.07,427.31 L 497.53,428.11 L 498.00,428.84 L 498.46,429.49 L 498.92,430.07 L 499.39,430.58 L 499.85,431.02 L 500.31,431.39 L 500.78,431.71 L 501.24,431.95 L 501.70,432.14 L 502.17,432.27 L 502.63,432.33 L 503.09,432.33 L 503.56,432.27 L 504.02,432.14 L 504.48,431.95 L 504.95,431.69 L 505.41,431.35 L 505.87,430.95 L 506.34,430.46 L 506.80,429.89 L 507.26,429.23 L 507.73,428.48 L 508.19,427.63 L 508.65,426.67 L 509.12,425.60 L 509.58,424.41 L 510.04,423.08 L 510.51,421.62 L 510.97,420.01 L 511.43,418.24 L 511.90,416.30 L 512.36,414.19 L 512.82,411.90 L 513.29,409.43 L 513.75,406.78 L 514.21,403.95 L 514.68,400.96 L 515.14,397.83 L 515.60,394.60 L 516.07,391.32 L 516.53,388.06 L 516.99,384.88 L 517.46,381.89 L 517.92,379.18 L 518.38,376.88 L 518.85,375.07 L 519.31,373.85 L 519.77,373.29 L 520.24,373.41 L 520.70,374.23 L 521.16,375.71 L 521.63,377.77 L 522.09,380.33 L 522.55,383.29 L 523.02,386.53 L 523.48,389.96 L 523.94,393.48 L 524.41,397.01 L 524.87,400.49 L 525.33,403.88 L 525.80,407.13 L 526.26,410.22 L 526.72,413.15 L 527.19,415.90 L 527.65,418.47 L 528.11,420.87 L 528.58,423.10 L 529.04,425.17 L 529.50,427.09 L 529.97,428.87 L 530.43,430.52 L 530.89,432.05 L 531.36,433.47 L 531.82,434.79 L 532.28,436.01 L 532.75,437.15 L 533.21,438.21 L 533.67,439.19 L 534.14,440.10 L 534.60,440.96 L 535.06,441.76 L 535.53,442.50 L 535.99,443.20 L 536.45,443.86 L 536.92,444.47 L 537.38,445.05 L 537.84,445.59 L 538.31,446.10 L 538.77,446.58 L 539.23,447.04 L 539.70,447.47 L 540.16,447.87 L 540.62,448.26 L 541.09,448.62 L 541.55,448.96 L 542.01,449.29 L 542.48,449.60 L 542.94,449.90 L 543.40,450.18 L 543.87,450.45 L 544.33,450.70 L 544.79,450.95 L 545.26,451.18 L 545.72,451.40 L 546.18,451.62 L 546.65,451.82 L 547.11,452.01 L 547.57,452.20 L 548.04,452.38 L 548.50,452.55 L 548.96,452.72 L 549.43,452.88 L 549.89,453.03 L 550.35,453.18 L 550.82,453.32 L 551.28,453.46 L 551.74,453.59 L 552.21,453.72 L 552.67,453.84 L 553.13,453.96 L 553.60,454.07 L 554.06,454.18 L 554.52,454.29 L 554.99,454.39 L 555.45,454.49 L 555.91,454.59 L 556.38,454.68 L 556.84,454.77 L 557.30,454.86 L 557.77,454.94 L 558.23,455.03 L 558.69,455.11 L 559.16,455.19 L 559.62,455.26 L 560.08,455.34 L 560.55,455.41 L 561.01,455.48 L 561.47,455.54 L 561.94,455.61 L 562.40,455.67 L 562.86,455.74 L 563.33,455.80 L 563.79,455.86 L 564.25,455.91 L 564.72,455.97 L 565.18,456.03 L 565.64,456.08 L 566.11,456.13 L 566.57,456.18 L 567.03,456.23 L 567.50,456.28 L 567.96,456.33 L 568.42,456.37 L 568.89,456.42 L 569.35,456.46 L 569.81,456.51 L 570.28,456.55 L 570.74,456.59 L 571.20,456.63 L 571.67,456.67 L 572.13,456.71 L 572.59,456.75 L 573.06,456.79 L 573.52,456.82 L 573.98,456.86 L 574.45,456.89 L 574.91,456.93 L 575.37,456.96 L 575.84,456.99 L 576.30,457.03 L 576.76,457.06 L 577.23,457.09 L 577.69,457.12 L 578.15,457.15 L 578.62,457.18 L 579.08,457.21 L 579.54,457.24 L 580.01,457.26 L 580.47,457.29 L 580.93,457.32 L 581.40,457.34 L 581.86,457.37 L 582.32,457.39 L 582.79,457.42 L 583.25,457.44 L 583.71,457.47 L 584.18,457.49 L 584.64,457.51 L 585.10,457.54 L 585.57,457.56 L 586.03,457.58 L 586.49,457.60 L 586.96,457.63 L 587.42,457.65 L 587.88,457.67 L 588.35,457.69 L 588.81,457.71 L 589.27,457.73 L 589.74,457.75 L 590.20,457.77 L 590.66,457.79 L 591.13,457.80 L 591.59,457.82 L 592.05,457.84 L 592.52,457.86 L 592.98,457.88 L 593.44,457.89 L 593.91,457.91 L 594.37,457.93 L 594.83,457.94 L 595.30,457.96 L 595.76,457.98 L 596.22,457.99 L 596.69,458.01 L 597.15,458.02 L 597.61,458.04 L 598.08,458.05 L 598.54,458.07 L 599.00,458.08 L 599.47,458.10 L 599.93,458.11 L 600.39,458.12 L 600.86,458.14 L 601.32,458.15 L 601.78,458.17 L 602.25,458.18 L 602.71,458.19 L 603.17,458.21 L 603.64,458.22 L 604.10,458.23 L 604.56,458.24 L 605.03,458.26 L 605.49,458.27 L 605.95,458.28 L 606.42,458.29 L 606.88,458.30 L 607.34,458.31 L 607.81,458.33 L 608.27,458.34 L 608.73,458.35 L 609.20,458.36 L 609.66,458.37 L 610.12,458.38 L 610.59,458.39 L 611.05,458.40 L 611.51,458.41 L 611.98,458.42 L 612.44,458.43 L 612.90,458.44 L 613.37,458.45 L 613.83,458.46 L 614.29,458.47 L 614.76,458.48 L 615.22,458.49 L 615.68,458.50 L 616.15,458.51 L 616.61,458.52 L 617.07,458.53 L 617.54,458.54 L 618.00,458.55 L 618.0,460.0" fill="none" stroke="#111111" stroke-width="8.25" stroke-linecap="round" stroke-linejoin="round" clip-path="url(#clip)"/>
<text x="340" y="552" text-anchor="middle" font-family="Arial Black, Arial, sans-serif" font-weight="900" font-size="86" fill="#111111" letter-spacing="4" clip-path="url(#clip)">NOMAD</text>
<circle cx="340" cy="340" r="314" fill="none" stroke="#111111" stroke-width="7"/>
</svg>