<?xml version="1.0" standalone="no"?>
<!DOCTYPE svg PUBLIC "-//W3C//DTD SVG 20010904//EN"
 "http://www.w3.org/TR/2001/REC-SVG-20010904/DTD/svg10.dtd">
<svg version="1.0" xmlns="http://www.w3.org/2000/svg"
 width="600.000000pt" height="600.000000pt" viewBox="0 0 600.000000 600.000000"
 preserveAspectRatio="xMidYMid meet">

<g transform="translate(0.000000,600.000000) scale(0.100000,-0.100000)"
fill="#000000" stroke="none">
<path d="M2270 5435 c-444 -56 -864 -263 -1183 -582 -604 -603 -766 -1518
-406 -2281 297 -631 891 -1067 1572 -1157 506 -66 1023 64 1437 361 49 35 93
64 97 64 4 0 339 -331 743 -734 775 -775 776 -775 865 -776 44 0 131 36 157
66 29 33 58 107 58 149 0 89 -1 90 -776 865 -403 404 -734 738 -734 742 0 4
29 48 65 99 248 351 374 742 375 1166 0 548 -210 1055 -597 1440 -306 304
-682 496 -1113 568 -136 23 -418 28 -560 10z m480 -430 c456 -74 845 -320
1092 -692 184 -277 269 -554 270 -883 0 -159 -11 -255 -47 -400 -141 -563
-592 -1014 -1155 -1155 -145 -36 -241 -47 -400 -47 -329 1 -606 86 -883 270
-441 293 -707 790 -707 1325 0 268 55 494 180 736 202 391 562 682 995 807
183 52 466 69 655 39z"/>
</g>
</svg>
