<?xml version="1.0" standalone="no"?>
<!DOCTYPE svg PUBLIC "-//W3C//DTD SVG 20010904//EN"
 "http://www.w3.org/TR/2001/REC-SVG-20010904/DTD/svg10.dtd">
<svg version="1.0" xmlns="http://www.w3.org/2000/svg"
 width="140.000000pt" height="140.000000pt" viewBox="0 0 140.000000 140.000000"
 preserveAspectRatio="xMidYMid meet">
<metadata>
Created by potrace 1.15, written by Peter Selinger 2001-2017
</metadata>
<g transform="translate(0.000000,140.000000) scale(0.100000,-0.100000)"
fill="#000000" stroke="none">
<path d="M607 1272 c-13 -14 -17 -38 -17 -90 l0 -71 -37 -11 c-22 -6 -50 -26
-65 -44 l-27 -33 -2 -196 -1 -197 -34 -21 -34 -21 0 -219 0 -219 75 0 75 0 0
140 c0 87 4 140 10 140 6 0 10 -4 10 -10 0 -5 13 -10 29 -10 17 0 33 -4 36
-10 8 -13 142 -13 150 0 3 6 17 10 31 10 13 0 24 5 24 10 0 6 5 10 10 10 6 0
10 -53 10 -140 l0 -140 70 0 70 0 0 224 0 224 -27 12 c-27 12 -28 14 -25 87 2
45 -1 80 -7 86 -7 7 -11 59 -11 134 0 68 -4 123 -9 123 -5 0 -12 11 -15 24 -5
19 -16 26 -53 35 l-48 12 0 81 c0 85 -12 109 -49 95 -13 -5 -16 -22 -16 -92 0
-71 -3 -85 -16 -85 -30 0 -44 27 -44 88 0 44 -4 63 -18 75 -23 21 -25 21 -45
-1z"/>
</g>
</svg>
